<svg width="41" height="40" viewBox="0 0 41 40" fill="none" xmlns="http://www.w3.org/2000/svg">
<circle cx="20.6665" cy="20" r="20" fill="#BF83FF"/>
<path d="M18.6665 21C22.5325 21 25.6665 23.2386 25.6665 26C25.6665 27.1046 24.7711 28 23.6665 28H13.6665C12.5619 28 11.6665 27.1046 11.6665 26C11.6665 23.2386 14.8005 21 18.6665 21ZM18.6665 12C20.8756 12 22.6665 13.7909 22.6665 16C22.6665 18.2091 20.8756 20 18.6665 20C16.4574 20 14.6665 18.2091 14.6665 16C14.6665 13.7909 16.4574 12 18.6665 12ZM26.6665 14C27.2188 14 27.6665 14.4477 27.6665 15V16H28.6665C29.2188 16 29.6665 16.4477 29.6665 17C29.6665 17.5523 29.2188 18 28.6665 18H27.6665V19C27.6665 19.5523 27.2188 20 26.6665 20C26.1142 20 25.6665 19.5523 25.6665 19V18H24.6665C24.1142 18 23.6665 17.5523 23.6665 17C23.6665 16.4477 24.1142 16 24.6665 16H25.6665V15C25.6665 14.4477 26.1142 14 26.6665 14Z" fill="white"/>
</svg>
