<svg width="41" height="40" viewBox="0 0 41 40" fill="none" xmlns="http://www.w3.org/2000/svg">
<circle cx="20.3333" cy="20" r="20" fill="#00DC20"/>
<path fill-rule="evenodd" clip-rule="evenodd" d="M12.3333 14C12.3333 11.7909 14.1241 10 16.3333 10H22.3333V14C22.3333 16.2091 24.1241 18 26.3333 18H28.3333V26C28.3333 28.2091 26.5424 30 24.3333 30H16.3333C14.1241 30 12.3333 28.2091 12.3333 26V14ZM16.3333 19C15.781 19 15.3333 19.4477 15.3333 20C15.3333 20.5523 15.781 21 16.3333 21H18.3333C18.8855 21 19.3333 20.5523 19.3333 20C19.3333 19.4477 18.8855 19 18.3333 19H16.3333ZM16.3333 23C15.781 23 15.3333 23.4477 15.3333 24C15.3333 24.5523 15.781 25 16.3333 25H20.3333C20.8855 25 21.3333 24.5523 21.3333 24C21.3333 23.4477 20.8855 23 20.3333 23H16.3333ZM25.015 12.1988L24.8841 14.1629C24.8439 14.7666 25.3447 15.2674 25.9484 15.2272L27.9125 15.0962C28.7698 15.0391 29.1606 13.9989 28.5531 13.3913L26.7199 11.5582C26.1124 10.9507 25.0722 11.3415 25.015 12.1988Z" fill="white"/>
</svg>
