<svg width="24" height="24" viewBox="0 0 24 24" fill="none" xmlns="http://www.w3.org/2000/svg">
<path fill-rule="evenodd" clip-rule="evenodd" d="M22.2076 18.9304H1.81217C0.819907 18.9304 0.0200195 18.1305 0.0200195 17.1382V4.0734C0.0200195 3.08114 0.819907 2.28125 1.81217 2.28125H22.2076C23.1999 2.28125 23.9998 3.08114 23.9998 4.0734V17.1382C23.9998 18.1305 23.1796 18.9304 22.2076 18.9304ZM1.81217 2.96301C1.18779 2.96301 0.70178 3.46927 0.70178 4.0734V17.1382C0.70178 17.7424 1.20804 18.2486 1.81217 18.2486H22.2076C22.832 18.2486 23.318 17.7626 23.318 17.1382V4.0734C23.318 3.44902 22.8117 2.96301 22.2076 2.96301H1.81217Z" fill="black"/>
<path fill-rule="evenodd" clip-rule="evenodd" d="M15.4411 21.7184C15.3061 21.7184 15.1677 21.6408 15.1306 21.5058L14.0168 18.718C13.9392 18.5425 14.0371 18.3467 14.2126 18.2691C14.3881 18.1915 14.5838 18.2894 14.6615 18.4649L15.7718 21.2527C15.8495 21.4282 15.755 21.6205 15.5795 21.6982C15.539 21.6982 15.4816 21.7184 15.4411 21.7184ZM8.57961 21.7184C8.53911 21.7184 8.50199 21.7184 8.46148 21.6982C8.28598 21.6205 8.20836 21.4282 8.26573 21.2527L9.3795 18.4649C9.45713 18.2894 9.6495 18.2084 9.82501 18.2691C10.0005 18.3467 10.0815 18.5425 10.0208 18.718L8.91037 21.5058C8.83274 21.6205 8.69436 21.7184 8.57961 21.7184Z" fill="black"/>
<path fill-rule="evenodd" clip-rule="evenodd" d="M23.649 16.2606H0.351005C0.155252 16.2606 0 16.1054 0 15.9096C0 15.7138 0.155252 15.5586 0.351005 15.5586H23.649C23.8447 15.5586 24 15.7138 24 15.9096C24 16.1054 23.8447 16.2606 23.649 16.2606Z" fill="black"/>
<path fill-rule="evenodd" clip-rule="evenodd" d="M17.9552 21.7176H6.06487C5.86912 21.7176 5.71387 21.5624 5.71387 21.3666C5.71387 21.1709 5.86912 21.0156 6.06487 21.0156H17.9552C18.1509 21.0156 18.3062 21.1709 18.3062 21.3666C18.3062 21.5624 18.1509 21.7176 17.9552 21.7176Z" fill="black"/>
<path fill-rule="evenodd" clip-rule="evenodd" d="M6.06493 14.7023C4.19177 14.7023 2.43675 13.5109 1.83261 11.6209C1.07322 9.29882 2.33887 6.78441 4.67778 6.02502C4.75878 6.00477 4.85328 6.00477 4.93428 6.04527C5.01191 6.0824 5.06929 6.16002 5.10641 6.24102L6.33493 10.0211L9.74711 12.0495C9.90574 12.1474 9.96311 12.36 9.86524 12.5186C9.31848 13.4535 8.44096 14.1555 7.4082 14.4863C6.95932 14.6247 6.51043 14.7023 6.06493 14.7023ZM4.56303 6.80466C2.808 7.56404 1.87311 9.55533 2.47725 11.4251C3.11851 13.3759 5.22454 14.466 7.19557 13.8248C7.97521 13.5716 8.61647 13.1025 9.0856 12.4579L5.86917 10.5476C5.79155 10.5105 5.75105 10.4328 5.71392 10.3518L4.56303 6.80466Z" fill="black"/>
<path fill-rule="evenodd" clip-rule="evenodd" d="M11.131 12.2445C11.0736 12.2445 11.0162 12.2242 10.9588 12.204L7.44877 10.1182C7.35089 10.0608 7.29014 9.96293 7.29014 9.86505C7.27327 9.76717 7.31039 9.64905 7.38802 9.57142L10.3344 6.72625C10.4694 6.59125 10.6854 6.59125 10.8204 6.72625C11.3065 7.23251 11.6575 7.79952 11.8532 8.44078C12.2447 9.64905 12.1063 10.9754 11.4448 12.069C11.3672 12.1837 11.2491 12.2445 11.131 12.2445ZM8.16765 9.74692L10.9959 11.4243C11.4043 10.5671 11.482 9.57142 11.1917 8.65678C11.0533 8.22815 10.8407 7.81639 10.5471 7.46539L8.16765 9.74692Z" fill="black"/>
<path fill-rule="evenodd" clip-rule="evenodd" d="M6.84466 9.59213C6.82441 9.59213 6.78391 9.59213 6.76703 9.57188C6.64891 9.555 6.55103 9.45712 6.53078 9.339L5.26514 5.45769C5.20438 5.28218 5.30226 5.08981 5.47776 5.02905C7.09779 4.50255 8.85282 4.93455 10.0408 6.1597C10.0982 6.22045 10.1387 6.31832 10.1387 6.39595C10.1387 6.49383 10.0982 6.57145 10.0408 6.62883L7.07754 9.49425C7.02016 9.555 6.92229 9.59213 6.84466 9.59213ZM6.02452 5.59606L6.99991 8.61674L9.29832 6.39595C8.38368 5.61631 7.17542 5.32268 6.02452 5.59606Z" fill="black"/>
<path fill-rule="evenodd" clip-rule="evenodd" d="M22.4407 14.5067H12.9062C12.7104 14.5067 12.5552 14.3514 12.5552 14.1557C12.5552 13.9599 12.7104 13.8047 12.9062 13.8047H22.4407C22.6365 13.8047 22.7917 13.9599 22.7917 14.1557C22.7917 14.3514 22.6162 14.5067 22.4407 14.5067Z" fill="black"/>
<path fill-rule="evenodd" clip-rule="evenodd" d="M15.657 14.5044C15.4612 14.5044 15.306 14.3491 15.306 14.1534V11.2677H13.9593V14.1534C13.9593 14.3491 13.8041 14.5044 13.6083 14.5044C13.4126 14.5044 13.2573 14.3491 13.2573 14.1534V10.9369C13.2573 10.7412 13.4126 10.5859 13.6083 10.5859H15.6367C15.8325 10.5859 15.9877 10.7412 15.9877 10.9369V14.1736C16.008 14.3491 15.8494 14.5044 15.657 14.5044Z" fill="black"/>
<path fill-rule="evenodd" clip-rule="evenodd" d="M18.698 14.5064C18.5022 14.5064 18.347 14.3511 18.347 14.1554V10.3146H17.0004V14.1554C17.0004 14.3511 16.8451 14.5064 16.6493 14.5064C16.457 14.5064 16.2983 14.3511 16.2983 14.1554V9.98382C16.2983 9.78806 16.457 9.63281 16.6493 9.63281H18.6778C18.8735 9.63281 19.0288 9.78806 19.0288 9.98382V14.1756C19.0288 14.3511 18.8735 14.5064 18.698 14.5064Z" fill="black"/>
<path fill-rule="evenodd" clip-rule="evenodd" d="M21.6983 14.5073C21.5059 14.5073 21.3473 14.352 21.3473 14.1563V8.65832H20.0243V14.1563C20.0243 14.352 19.8656 14.5073 19.6733 14.5073C19.4775 14.5073 19.3223 14.352 19.3223 14.1563V8.32757C19.3223 8.13181 19.4775 7.97656 19.6733 7.97656H21.6814C21.8738 7.97656 22.0324 8.13181 22.0324 8.32757V14.1563C22.0493 14.352 21.8941 14.5073 21.6983 14.5073Z" fill="black"/>
<path fill-rule="evenodd" clip-rule="evenodd" d="M21.6812 4.99107H13.6655C13.4731 4.99107 13.3145 4.83582 13.3145 4.64007C13.3145 4.44431 13.4731 4.28906 13.6655 4.28906H21.6812C21.8736 4.28906 22.0322 4.44431 22.0322 4.64007C22.0322 4.83582 21.8736 4.99107 21.6812 4.99107Z" fill="black"/>
<path fill-rule="evenodd" clip-rule="evenodd" d="M21.6812 6.5106H13.6655C13.4731 6.5106 13.3145 6.35535 13.3145 6.1596C13.3145 5.96722 13.4731 5.80859 13.6655 5.80859H21.6812C21.8736 5.80859 22.0322 5.96722 22.0322 6.1596C22.0322 6.35535 21.8736 6.5106 21.6812 6.5106Z" fill="black"/>
</svg>
