<svg width="24" height="24" viewBox="0 0 24 24" fill="none" xmlns="http://www.w3.org/2000/svg">
<g clip-path="url(#clip0_1658_5271)">
<path d="M22.9988 2.18034H18V1.09222C18.0005 0.948636 17.9749 0.806366 17.9248 0.673608C17.8747 0.540851 17.8009 0.420232 17.7078 0.318703C17.6148 0.217174 17.5042 0.136743 17.3825 0.0820458C17.2608 0.0273486 17.1304 -0.000533088 16.9988 7.719e-06H7.00125C6.86963 -0.000533088 6.7392 0.0273486 6.6175 0.0820458C6.4958 0.136743 6.38523 0.217174 6.29215 0.318703C6.19908 0.420232 6.12535 0.540851 6.07521 0.673608C6.02506 0.806366 5.9995 0.948636 6 1.09222V2.18034H1.00125C0.735702 2.18034 0.48103 2.29541 0.293259 2.50024C0.105489 2.70507 0 2.98288 0 3.27255C0 3.56222 0.105489 3.84003 0.293259 4.04486C0.48103 4.24969 0.735702 4.36476 1.00125 4.36476H3V20.7275C3 21.5954 3.31607 22.4278 3.87868 23.0415C4.44129 23.6552 5.20435 24 6 24H18C18.7956 24 19.5587 23.6552 20.1213 23.0415C20.6839 22.4278 21 21.5954 21 20.7275V4.36476H22.9988C23.2643 4.36476 23.519 4.24969 23.7067 4.04486C23.8945 3.84003 24 3.56222 24 3.27255C24 2.98288 23.8945 2.70507 23.7067 2.50024C23.519 2.29541 23.2643 2.18034 22.9988 2.18034ZM19.0012 20.7275C19.0003 21.0164 18.8943 21.2932 18.7067 21.4971C18.519 21.7011 18.2649 21.8156 18 21.8156H6C5.7351 21.8156 5.481 21.7011 5.29333 21.4971C5.10567 21.2932 4.99974 21.0164 4.99875 20.7275V4.36476H19.0012V20.7275Z" fill="#3E3027"/>
<path d="M9 18.5426C9.2649 18.5427 9.519 18.4281 9.70667 18.2242C9.89433 18.0202 10.0003 17.7435 10.0012 17.4545V8.72502C10.0012 8.43535 9.89576 8.15754 9.70799 7.95271C9.52022 7.74788 9.26555 7.63281 9 7.63281C8.73445 7.63281 8.47978 7.74788 8.29201 7.95271C8.10424 8.15754 7.99875 8.43535 7.99875 8.72502V17.4545C7.99974 17.7435 8.10567 18.0202 8.29333 18.2242C8.48099 18.4281 8.7351 18.5427 9 18.5426Z" fill="#3E3027"/>
<path d="M15 18.5426C15.2649 18.5427 15.519 18.4281 15.7067 18.2242C15.8943 18.0202 16.0003 17.7435 16.0012 17.4545V8.72502C16.0012 8.43535 15.8958 8.15754 15.708 7.95271C15.5202 7.74788 15.2655 7.63281 15 7.63281C14.7345 7.63281 14.4798 7.74788 14.292 7.95271C14.1042 8.15754 13.9987 8.43535 13.9987 8.72502V17.4545C13.9997 17.7435 14.1057 18.0202 14.2933 18.2242C14.481 18.4281 14.7351 18.5427 15 18.5426Z" fill="#3E3027"/>
</g>
<defs>
<clipPath id="clip0_1658_5271">
<rect width="24" height="24" fill="white"/>
</clipPath>
</defs>
</svg>
