<svg width="24" height="24" viewBox="0 0 24 24" fill="none" xmlns="http://www.w3.org/2000/svg">
<path d="M22.845 15.298L20.7188 10.1268C20.6906 10.0583 20.6428 9.99966 20.5814 9.95828C20.5201 9.91691 20.4478 9.89463 20.3738 9.89426H16.4325C16.333 9.89426 16.2377 9.93377 16.1673 10.0041C16.097 10.0744 16.0575 10.1698 16.0575 10.2693V17.1018H15.1613V7.19051C15.1613 7.09106 15.1217 6.99567 15.0514 6.92535C14.9811 6.85502 14.8857 6.81551 14.7863 6.81551H12.9113C12.8518 5.59099 12.3234 4.43629 11.4357 3.5907C10.5481 2.7451 9.36909 2.27344 8.14313 2.27344C6.91716 2.27344 5.73818 2.7451 4.8505 3.5907C3.96282 4.43629 3.4345 5.59099 3.375 6.81551H1.5C1.40054 6.81551 1.30516 6.85502 1.23483 6.92535C1.16451 6.99567 1.125 7.09106 1.125 7.19051V19.1268C1.125 19.2262 1.16451 19.3216 1.23483 19.3919C1.30516 19.4623 1.40054 19.5018 1.5 19.5018H2.505C2.5914 19.9708 2.83941 20.3948 3.20593 20.6999C3.57245 21.0051 4.03431 21.1722 4.51125 21.1722C4.98819 21.1722 5.45005 21.0051 5.81657 20.6999C6.18309 20.3948 6.4311 19.9708 6.5175 19.5018H7.41375C7.50015 19.9708 7.74816 20.3948 8.11468 20.6999C8.4812 21.0051 8.94306 21.1722 9.42 21.1722C9.89694 21.1722 10.3588 21.0051 10.7253 20.6999C11.0918 20.3948 11.3399 19.9708 11.4262 19.5018H17.4938C17.5801 19.9708 17.8282 20.3948 18.1947 20.6999C18.5612 21.0051 19.0231 21.1722 19.5 21.1722C19.9769 21.1722 20.4388 21.0051 20.8053 20.6999C21.1718 20.3948 21.4199 19.9708 21.5062 19.5018H22.5C22.5995 19.5018 22.6948 19.4623 22.7652 19.3919C22.8355 19.3216 22.875 19.2262 22.875 19.1268V15.4405C22.8744 15.3915 22.8642 15.3431 22.845 15.298ZM21.9412 15.0655H19.3162V10.6443H20.1413L21.9412 15.0655ZM16.0575 18.7518H11.4262C11.3641 18.4286 11.2252 18.1251 11.0212 17.8668H16.0575V18.7518ZM7.4325 18.7518H6.5175C6.45656 18.4289 6.31895 18.1254 6.11625 17.8668H7.815C7.6123 18.1254 7.47469 18.4289 7.41375 18.7518H7.4325ZM8.14125 3.15926C8.93919 3.15629 9.72006 3.3902 10.385 3.83135C11.0499 4.2725 11.5689 4.90105 11.8763 5.6374C12.1837 6.37375 12.2657 7.18476 12.1119 7.96774C11.958 8.75071 11.5753 9.47041 11.0121 10.0357C10.4489 10.601 9.73063 10.9864 8.94824 11.1432C8.16585 11.2999 7.35453 11.221 6.61704 10.9163C5.87955 10.6116 5.24907 10.095 4.80544 9.43171C4.36182 8.76845 4.12501 7.98846 4.125 7.19051C4.12598 6.12425 4.54896 5.10173 5.30151 4.34637C6.05406 3.591 7.075 3.16422 8.14125 3.15926ZM1.875 7.56551H3.375C3.46428 8.76704 4.0046 9.89037 4.88755 10.7101C5.7705 11.5299 6.93078 11.9855 8.13562 11.9855C9.34047 11.9855 10.5007 11.5299 11.3837 10.7101C12.2667 9.89037 12.807 8.76704 12.8962 7.56551H14.3962V17.068H1.875V7.56551ZM1.875 17.8518H2.91C2.7039 18.1144 2.56489 18.4233 2.505 18.7518H1.875V17.8518ZM4.5 20.4018C4.18087 20.4048 3.87194 20.2895 3.63289 20.0781C3.39385 19.8666 3.24166 19.5741 3.20575 19.257C3.16985 18.9399 3.25276 18.6207 3.43847 18.3611C3.62419 18.1016 3.89952 17.9201 4.21125 17.8518H4.8C5.11286 17.9202 5.38909 18.1025 5.57496 18.3633C5.76083 18.6241 5.84306 18.9447 5.80564 19.2627C5.76822 19.5808 5.61384 19.8735 5.37251 20.0841C5.13119 20.2946 4.82019 20.4078 4.5 20.4018ZM9.405 20.4018C9.08587 20.4048 8.77694 20.2895 8.53789 20.0781C8.29885 19.8666 8.14666 19.5741 8.11075 19.257C8.07485 18.9399 8.15776 18.6207 8.34347 18.3611C8.52919 18.1016 8.80452 17.9201 9.11625 17.8518H9.69375C10.0055 17.9201 10.2808 18.1016 10.4665 18.3611C10.6522 18.6207 10.7352 18.9399 10.6992 19.257C10.6633 19.5741 10.5112 19.8666 10.2721 20.0781C10.0331 20.2895 9.72413 20.4048 9.405 20.4018ZM19.5 20.4018C19.2433 20.4017 18.9925 20.3254 18.7793 20.1824C18.5662 20.0394 18.4004 19.8362 18.303 19.5987C18.2057 19.3612 18.1812 19.1001 18.2327 18.8486C18.2841 18.5972 18.4092 18.3667 18.592 18.1865C18.7748 18.0064 19.0071 17.8847 19.2593 17.8369C19.5115 17.7891 19.7722 17.8174 20.0082 17.9182C20.2443 18.019 20.445 18.1877 20.5849 18.403C20.7248 18.6182 20.7975 18.8701 20.7938 19.1268C20.7888 19.4666 20.6503 19.7909 20.4083 20.0295C20.1662 20.2681 19.8399 20.4018 19.5 20.4018ZM21.5062 18.7518C21.4199 18.2827 21.1718 17.8588 20.8053 17.5536C20.4388 17.2484 19.9769 17.0813 19.5 17.0813C19.0231 17.0813 18.5612 17.2484 18.1947 17.5536C17.8282 17.8588 17.5801 18.2827 17.4938 18.7518H16.8075V10.6443H18.5475V15.4405C18.5475 15.54 18.587 15.6354 18.6573 15.7057C18.7277 15.776 18.823 15.8155 18.9225 15.8155H22.125V18.7518H21.5062Z" fill="#3E3027"/>
<path d="M7.12496 9.155C7.16017 9.19616 7.20388 9.22921 7.25308 9.25187C7.30227 9.27452 7.3558 9.28625 7.40996 9.28625C7.46627 9.28454 7.52147 9.27017 7.57145 9.2442C7.62144 9.21823 7.66494 9.18133 7.69871 9.13625L10.3237 5.69375C10.3834 5.61419 10.409 5.51417 10.3949 5.41572C10.3809 5.31726 10.3283 5.22842 10.2487 5.16875C10.2093 5.1392 10.1645 5.1177 10.1168 5.10548C10.0691 5.09326 10.0194 5.09055 9.97068 5.09752C9.87222 5.11158 9.78339 5.16418 9.72371 5.24375L7.39871 8.31125L6.17996 6.87875C6.15224 6.83089 6.11428 6.78976 6.06879 6.75829C6.0233 6.72683 5.97142 6.70582 5.91685 6.69677C5.86229 6.68771 5.8064 6.69084 5.75319 6.70593C5.69998 6.72101 5.65076 6.74768 5.60907 6.78402C5.56738 6.82036 5.53424 6.86548 5.51203 6.91613C5.48982 6.96678 5.47909 7.02172 5.48061 7.07701C5.48213 7.13229 5.49586 7.18656 5.52082 7.23592C5.54577 7.28528 5.58134 7.3285 5.62496 7.3625L7.12496 9.155Z" fill="#3E3027"/>
</svg>
