<svg width="24" height="24" viewBox="0 0 24 24" fill="none" xmlns="http://www.w3.org/2000/svg">
<g clip-path="url(#clip0_1776_6523)">
<path fill-rule="evenodd" clip-rule="evenodd" d="M5.86921 17.1574L4.38756 16.2968L4.37069 18.288C4.37069 18.4332 4.22894 18.639 4.08043 18.639C4.02306 18.639 3.96231 18.6188 3.90493 18.5985L2.60216 17.8425C2.48741 17.7818 2.42666 17.667 2.42666 17.5489V15.1627L0.796507 14.2245V20.1342L5.86921 23.0637V17.1574ZM13.7601 8.29788V6.3066L12.3223 7.13686V13.0533L17.395 10.1272V4.22419L15.7412 5.16583V7.54187C15.7412 7.78487 15.5117 7.86587 15.3329 7.96712L14.2866 8.56788C14.047 8.70289 13.7601 8.57126 13.7601 8.29788ZM14.4385 5.92859V7.71399L15.0797 7.34611V5.54721L14.4385 5.92859ZM13.4665 5.71596L8.603 2.68179L6.92223 3.65381L9.26789 4.9937L11.9916 6.56985L13.4665 5.71596ZM11.7958 0.0391257C11.8937 -0.0182502 12.0287 -0.0182502 12.1468 0.0391257L17.9181 3.36355C18.016 3.42093 18.0937 3.53568 18.0937 3.65381V10.1373L23.7097 13.3706C23.8076 13.4313 23.8852 13.5461 23.8852 13.6642V20.3299C23.8852 20.4447 23.8279 20.5628 23.7097 20.6202L17.9181 23.9649C17.8979 23.975 17.8709 23.9851 17.8405 23.9919C17.8203 23.9986 17.7966 24.002 17.7764 24.002H17.773H17.7696C17.7696 24.002 17.7663 24.002 17.7629 24.002H17.7561C17.7156 24.002 17.6751 23.9952 17.638 23.9817C17.6211 23.975 17.6043 23.9682 17.5874 23.9649L11.9848 20.7383L6.39234 23.9649C6.36872 23.975 6.33497 23.9851 6.29784 23.9952C6.27422 23.9986 6.25059 24.002 6.22697 24.002H6.21684H6.21009C6.16959 24.002 6.12909 23.9952 6.09196 23.9817C6.07509 23.975 6.05821 23.9682 6.04471 23.9649L0.290249 20.6202C0.192372 20.5628 0.114746 20.4447 0.114746 20.3299V13.6642C0.114746 13.5461 0.172122 13.4313 0.290249 13.3706L5.84896 10.171V3.67406C5.84896 3.55593 5.90634 3.44118 6.02446 3.38043C7.94824 2.26666 9.87202 1.15289 11.7958 0.0391257ZM10.5605 1.55115L15.424 4.58195L17.0238 3.65381L11.9713 0.737762L10.5605 1.55115ZM9.26114 2.30041L14.1077 5.32446L14.7321 4.97683L9.87877 1.94603L9.26114 2.30041ZM11.6203 13.0466V7.14699L8.92026 5.57759L6.5476 4.22419V10.1272L7.0066 10.3904L11.6203 13.0466ZM19.5517 18.3083V16.344L18.1139 17.181V23.0637L23.1866 20.1342V14.2548L21.5531 15.1864L21.5733 17.532C21.5733 17.7818 21.3303 17.8594 21.1447 17.9573L20.0748 18.5817C19.8588 18.7268 19.5517 18.5715 19.5517 18.3083ZM19.8959 15.3315L20.5237 14.9636L15.6737 11.9396L15.046 12.3041L19.8959 15.3315ZM20.2301 15.9491V17.7042L20.8713 17.3363V15.5745L20.2301 15.9491ZM19.258 15.723L14.3878 12.6888L12.7172 13.6575L17.7831 16.5769L19.258 15.723ZM16.3656 11.5379L21.2459 14.5789L22.8322 13.671L17.7629 10.7279L16.3656 11.5379ZM17.4119 23.0637V17.1574L12.3594 14.2346V20.1477L17.4119 23.0637ZM1.17451 13.6575L2.78779 14.589L7.64449 11.5649L6.20672 10.7347L1.17451 13.6575ZM9.60202 12.6922L4.74869 15.7196L6.23709 16.5769L11.2895 13.671L9.60202 12.6922ZM11.6406 14.2548L6.56785 17.181V23.0637L11.6406 20.1342V14.2548ZM8.93376 12.3074L8.31612 11.9531L3.46617 14.9805L4.08043 15.3349L8.93376 12.3074ZM3.74968 15.939L3.10842 15.5677V17.3565L3.74968 17.7244V15.939Z" fill="#3E3027"/>
</g>
<defs>
<clipPath id="clip0_1776_6523">
<rect width="24" height="24" fill="white"/>
</clipPath>
</defs>
</svg>
