<svg width="32" height="32" viewBox="0 0 32 32" fill="none" xmlns="http://www.w3.org/2000/svg">
<path d="M15.9375 30.125C23.773 30.125 30.125 23.773 30.125 15.9375C30.125 8.10196 23.773 1.75 15.9375 1.75C8.10196 1.75 1.75 8.10196 1.75 15.9375C1.75 23.773 8.10196 30.125 15.9375 30.125Z" fill="#16675C"/>
<path d="M17.2578 13.2082C17.1511 15.2988 17.0978 16.9628 17.0978 18.2002C17.0978 18.8402 17.1138 19.4482 17.1458 20.0242C17.2311 20.0882 17.3964 20.1202 17.6418 20.1202L18.0098 20.1042C18.1591 20.0828 18.2978 20.0722 18.4258 20.0722C18.7031 20.0722 18.9164 20.1202 19.0658 20.2162C19.2258 20.3122 19.3058 20.4988 19.3058 20.7762C19.3058 21.0428 19.2258 21.2508 19.0658 21.4002C18.9164 21.5495 18.6018 21.6242 18.1218 21.6242C17.7164 21.6242 17.2258 21.5922 16.6498 21.5282C16.5111 21.5175 16.3778 21.5068 16.2498 21.4962C16.1218 21.4855 16.0044 21.4802 15.8978 21.4802C15.3111 21.4908 14.8738 21.5122 14.5858 21.5442C14.2978 21.5762 13.9724 21.5922 13.6098 21.5922C13.2791 21.5922 13.1138 21.3415 13.1138 20.8402C13.1138 20.3602 13.4231 20.1202 14.0418 20.1202C14.1378 20.1202 14.2924 20.1308 14.5058 20.1522C14.6871 20.1842 14.8791 20.2002 15.0818 20.2002C15.1991 20.2002 15.2951 20.1948 15.3698 20.1842C15.3804 19.4695 15.4178 18.4295 15.4818 17.0642C15.5458 15.4642 15.5778 14.2802 15.5778 13.5122C15.5244 13.5228 15.3378 13.5975 15.0178 13.7362C14.5271 13.9815 14.1644 14.1042 13.9298 14.1042C13.8018 14.1042 13.6844 14.0402 13.5778 13.9122C13.4711 13.7735 13.4178 13.6135 13.4178 13.4322C13.4178 13.2508 13.5298 13.0748 13.7538 12.9042C13.9778 12.7335 14.3404 12.5095 14.8418 12.2322C15.1191 12.0935 15.3858 11.9388 15.6418 11.7682C15.7058 11.7255 15.7964 11.6828 15.9138 11.6402C16.0418 11.5975 16.1378 11.5762 16.2018 11.5762C16.4791 11.5762 16.7298 11.6348 16.9538 11.7522C17.1884 11.8588 17.3058 12.0028 17.3058 12.1842L17.2578 13.2082Z" fill="white"/>
</svg>
