<svg width="32" height="32" viewBox="0 0 32 32" fill="none" xmlns="http://www.w3.org/2000/svg">
<path d="M15.9375 30.125C23.773 30.125 30.125 23.773 30.125 15.9375C30.125 8.10196 23.773 1.75 15.9375 1.75C8.10196 1.75 1.75 8.10196 1.75 15.9375C1.75 23.773 8.10196 30.125 15.9375 30.125Z" fill="#16675C"/>
<path d="M14.806 19.9614C15.1686 19.9827 15.4086 19.9934 15.526 19.9934C15.8886 19.9934 16.2086 19.988 16.486 19.9774C16.774 19.9667 17.0193 19.956 17.222 19.9454C17.7446 19.9134 18.214 19.8974 18.63 19.8974C19.0353 19.8974 19.334 20.004 19.526 20.2174C19.718 20.4307 19.814 20.7134 19.814 21.0654C19.814 21.236 19.702 21.3748 19.478 21.4814C19.254 21.5774 19.0246 21.6254 18.79 21.6254C18.5873 21.6254 18.166 21.604 17.526 21.5614C16.758 21.4974 16.1553 21.4654 15.718 21.4654C15.4833 21.4654 15.206 21.4814 14.886 21.5134C14.758 21.524 14.6033 21.5347 14.422 21.5454C14.2406 21.556 14.038 21.5614 13.814 21.5614C13.3873 21.5614 13.062 21.5028 12.838 21.3854C12.614 21.268 12.502 21.0548 12.502 20.7454C12.502 20.4788 12.6086 20.2068 12.822 19.9294C13.0353 19.652 13.334 19.3214 13.718 18.9374L14.102 18.5534C14.2726 18.372 14.5873 18.0627 15.046 17.6254C15.8033 16.9427 16.39 16.34 16.806 15.8174C17.2326 15.2948 17.446 14.7774 17.446 14.2654C17.446 13.9348 17.286 13.668 16.966 13.4654C16.6566 13.252 16.2993 13.1454 15.894 13.1454C15.2753 13.1454 14.8273 13.284 14.55 13.5614C14.2833 13.828 14.15 14.2174 14.15 14.7294C14.15 14.8574 14.0753 14.9748 13.926 15.0814C13.7873 15.1774 13.6113 15.2254 13.398 15.2254C13.0993 15.2254 12.8913 15.1187 12.774 14.9054C12.6566 14.692 12.598 14.4308 12.598 14.1214C12.598 13.6308 12.7473 13.1987 13.046 12.8254C13.3446 12.4414 13.75 12.1427 14.262 11.9294C14.7846 11.716 15.3606 11.6094 15.99 11.6094C16.438 11.6094 16.902 11.7214 17.382 11.9454C17.8726 12.1587 18.278 12.452 18.598 12.8254C18.9286 13.188 19.094 13.588 19.094 14.0254C19.094 14.6867 18.9286 15.316 18.598 15.9134C18.2673 16.5107 17.878 17.044 17.43 17.5134C16.9926 17.972 16.422 18.516 15.718 19.1454C15.3766 19.4334 15.0726 19.7054 14.806 19.9614Z" fill="white"/>
</svg>
