<svg width="32" height="32" viewBox="0 0 32 32" fill="none" xmlns="http://www.w3.org/2000/svg">
<path d="M15.9375 30.125C23.773 30.125 30.125 23.773 30.125 15.9375C30.125 8.10196 23.773 1.75 15.9375 1.75C8.10196 1.75 1.75 8.10196 1.75 15.9375C1.75 23.773 8.10196 30.125 15.9375 30.125Z" fill="#16675C"/>
<path d="M16.6651 15.2251C17.5397 15.4171 18.2651 15.7957 18.8411 16.3611C19.4171 16.9265 19.7051 17.5825 19.7051 18.3291C19.7051 18.7771 19.5985 19.2145 19.3851 19.6411C19.0437 20.3237 18.5317 20.8357 17.8491 21.1771C17.1771 21.5185 16.3985 21.6891 15.5131 21.6891C14.9585 21.6891 14.4625 21.5877 14.0251 21.3851C13.5877 21.1717 13.1557 20.8891 12.7291 20.5371C12.5691 20.3877 12.4251 20.1745 12.2971 19.8971C12.1798 19.6197 12.1211 19.3905 12.1211 19.2091C12.1211 18.9745 12.1851 18.7877 12.3131 18.6491C12.4518 18.4997 12.6331 18.4251 12.8571 18.4251C13.0811 18.4251 13.2571 18.4785 13.3851 18.5851C13.5131 18.6917 13.6677 18.8625 13.8491 19.0971C14.0197 19.3211 14.1745 19.5025 14.3131 19.6411C14.4517 19.7691 14.6385 19.8811 14.8731 19.9771C15.1077 20.0731 15.4011 20.1211 15.7531 20.1211C16.4677 20.1211 17.0277 19.9451 17.4331 19.5931C17.8385 19.2411 18.0411 18.7451 18.0411 18.1051C18.0411 17.8597 17.9077 17.6145 17.6411 17.3691C17.3745 17.1131 17.1237 16.9317 16.8891 16.8251C16.7505 16.7505 16.4945 16.6757 16.1211 16.6011C15.6197 16.4731 15.2411 16.3505 14.9851 16.2331C14.7397 16.1051 14.6171 15.9077 14.6171 15.6411C14.6171 15.4597 14.6971 15.2837 14.8571 15.1131C15.0171 14.9317 15.2571 14.7077 15.5771 14.4411C15.8971 14.1745 16.1371 13.9557 16.2971 13.7851C16.4571 13.6037 16.5371 13.4225 16.5371 13.2411C16.3345 13.1877 16.0305 13.1611 15.6251 13.1611C15.4437 13.1611 15.1717 13.1717 14.8091 13.1931C14.4891 13.2145 14.2437 13.2251 14.0731 13.2251C13.6891 13.2251 13.3585 13.1611 13.0811 13.0331C12.8145 12.9051 12.6811 12.7397 12.6811 12.5371C12.6811 12.3131 12.7025 12.1371 12.7451 12.0091C12.7877 11.8704 12.8677 11.7851 12.9851 11.7531C13.0597 11.7211 13.1931 11.7051 13.3851 11.7051C13.9077 11.7051 14.3611 11.7211 14.7451 11.7531C15.1717 11.7744 15.4971 11.7851 15.7211 11.7851L17.0491 11.7691C18.1371 11.7691 18.6811 12.0304 18.6811 12.5531C18.6811 12.9477 18.4785 13.3957 18.0731 13.8971C17.6785 14.3877 17.2091 14.8305 16.6651 15.2251Z" fill="white"/>
</svg>
