<svg width="18" height="18" viewBox="0 0 18 18" fill="none" xmlns="http://www.w3.org/2000/svg">
<path d="M17.5713 8.99916C17.5713 4.2653 13.7338 0.427732 8.9999 0.427732C4.26603 0.427732 0.428467 4.2653 0.428467 8.99916C0.428467 13.019 3.19584 16.3919 6.92924 17.3182V11.6185H5.16175V8.99916H6.92924V7.87051C6.92924 4.95307 8.24952 3.60084 11.1137 3.60084C11.6568 3.60084 12.5938 3.7073 12.9771 3.81379V6.18821C12.7748 6.16692 12.4234 6.15626 11.9868 6.15626C10.5814 6.15626 10.0383 6.68865 10.0383 8.07283V8.99916H12.838L12.3571 11.6185H10.0383V17.5078C14.2824 16.9952 17.5713 13.3815 17.5713 8.99916Z" fill="#0866FF"/>
</svg>
