<svg width="32" height="32" viewBox="0 0 32 32" fill="none" xmlns="http://www.w3.org/2000/svg">
<rect width="32" height="32" rx="16" fill="white"/>
<path d="M16 24.0018L15.2423 23.3173C13.6103 21.8263 12.2603 20.55 11.1923 19.4885C10.1244 18.4269 9.2815 17.4906 8.6635 16.6798C8.0455 15.869 7.61375 15.1353 7.36825 14.4788C7.12275 13.8225 7 13.1622 7 12.498C7 11.2262 7.43208 10.1583 8.29625 9.2943C9.16025 8.43013 10.2282 7.99805 11.5 7.99805C12.3795 7.99805 13.2045 8.22305 13.975 8.67305C14.7455 9.12305 15.4205 9.77755 16 10.6365C16.5795 9.77755 17.2545 9.12305 18.025 8.67305C18.7955 8.22305 19.6205 7.99805 20.5 7.99805C21.7718 7.99805 22.8398 8.43013 23.7038 9.2943C24.5679 10.1583 25 11.2262 25 12.498C25 13.1622 24.8773 13.8225 24.6318 14.4788C24.3863 15.1353 23.9545 15.869 23.3365 16.6798C22.7185 17.4906 21.8788 18.4269 20.8173 19.4885C19.7558 20.55 18.4026 21.8263 16.7578 23.3173L16 24.0018Z" fill="#FF2F2F"/>
</svg>
