<svg width="32" height="32" viewBox="0 0 32 32" fill="none" xmlns="http://www.w3.org/2000/svg">
<path d="M30.117 6.4187C30.9829 6.4187 31.6874 7.12314 31.6874 7.98908V24.1078C31.6874 24.9736 30.983 25.6781 30.117 25.6781H1.88385C1.01798 25.6781 0.313477 24.9737 0.313477 24.1078V7.98908C0.313477 7.1232 1.01791 6.4187 1.88385 6.4187H30.117ZM30.117 6.1062H1.88385C0.843976 6.1062 0.000976562 6.9492 0.000976562 7.98908V24.1078C0.000976562 25.1478 0.843976 25.9906 1.88385 25.9906H30.117C31.157 25.9906 31.9999 25.1478 31.9999 24.1078V7.98908C31.9999 6.9492 31.157 6.1062 30.117 6.1062Z" fill="#3F63AC"/>
<path d="M19.5307 18.9558C19.5083 18.9558 19.4861 18.9554 19.4633 18.954C18.7647 18.9171 18.2278 18.3178 18.2644 17.615C18.5079 12.9362 14.8118 10.8424 14.7742 10.8219C14.1608 10.4835 13.936 9.70897 14.2725 9.09185C14.6087 8.47453 15.3788 8.24847 15.9925 8.58685C16.2021 8.70241 21.1204 11.4887 20.7948 17.7481C20.7595 18.4283 20.1998 18.9558 19.5307 18.9558Z" fill="url(#paint0_linear_774_836)"/>
<path d="M15.2104 17.4562C15.2076 17.4562 15.2049 17.4562 15.2021 17.4562C14.5255 17.4562 13.9806 16.9568 13.9851 16.2801C14.0031 13.569 11.1957 12.0359 11.1674 12.0206C10.5732 11.6968 10.3542 10.9671 10.6779 10.373C11.0016 9.77894 11.7454 9.56663 12.3399 9.89063C12.5083 9.98225 16.4627 12.1322 16.4352 16.2928C16.4309 16.9665 15.8832 17.4562 15.2104 17.4562Z" fill="url(#paint1_linear_774_836)"/>
<path d="M19.5114 18.9564C19.332 18.9564 19.1498 18.9186 18.9761 18.8386C18.332 18.5426 18.0501 17.7805 18.3462 17.1366C20.3933 12.6837 18.4427 8.8413 18.4228 8.80299C18.0954 8.17449 18.3395 7.3993 18.9682 7.07205C19.5969 6.74437 20.3719 6.98868 20.6993 7.61762C20.8044 7.81949 23.2449 12.6264 20.6784 18.2086C20.462 18.6788 19.9973 18.9564 19.5114 18.9564Z" fill="url(#paint2_linear_774_836)"/>
<path d="M15.2095 17.5705C14.9661 17.5705 14.7205 17.4985 14.5062 17.3479C13.9527 16.9587 13.8192 16.1947 14.2081 15.6412C15.7463 13.4517 14.2286 10.2106 14.2128 10.1785C13.9147 9.57117 14.1654 8.83717 14.7727 8.5391C15.3802 8.2406 16.1144 8.49173 16.4123 9.09879C16.5027 9.28335 18.6003 13.6514 16.213 17.0494C15.9745 17.3891 15.595 17.5705 15.2095 17.5705Z" fill="url(#paint3_linear_774_836)"/>
<path d="M17.7173 20.4649C17.8226 20.552 18.0423 20.7352 18.0423 21.0836C18.0423 21.4226 17.8499 21.5831 17.6574 21.7342C17.5979 21.7937 17.5291 21.858 17.5291 21.9589C17.5291 22.0595 17.5979 22.1146 17.6482 22.1559L17.8134 22.2839C18.0148 22.4535 18.1981 22.6095 18.1981 22.9259C18.1981 23.3565 17.7809 23.7918 16.993 23.7918C16.3284 23.7918 16.0078 23.4755 16.0078 23.1365C16.0078 22.9713 16.0901 22.738 16.3607 22.5774C16.6446 22.4032 17.0296 22.3805 17.2358 22.3665C17.1716 22.284 17.0983 22.197 17.0983 22.0552C17.0983 21.9772 17.1214 21.9313 17.1442 21.8764C17.0936 21.8809 17.0434 21.8855 16.9974 21.8855C16.5117 21.8855 16.2367 21.5235 16.2367 21.1662C16.2367 20.9555 16.3331 20.7215 16.5299 20.552C16.7913 20.3367 17.1028 20.3 17.3504 20.3H18.2942L18.001 20.465H17.7173V20.4649ZM17.3916 22.4995C17.3551 22.495 17.3321 22.495 17.2865 22.495C17.2451 22.495 16.9974 22.5041 16.8051 22.5683C16.7043 22.605 16.4111 22.7149 16.4111 23.0403C16.4111 23.3657 16.7274 23.5995 17.2176 23.5995C17.6574 23.5995 17.8913 23.3883 17.8913 23.1047C17.8913 22.8705 17.7399 22.7471 17.3916 22.4995ZM17.5245 21.6289C17.63 21.5234 17.6391 21.3769 17.6391 21.2944C17.6391 20.9644 17.4421 20.4512 17.0619 20.4512C16.9425 20.4512 16.8144 20.5107 16.7408 20.6025C16.663 20.6989 16.6402 20.8223 16.6402 20.9416C16.6402 21.2485 16.8189 21.7572 17.2131 21.7572C17.3274 21.7571 17.4509 21.7022 17.5245 21.6289Z" fill="#3F63AC"/>
<path d="M14.8321 22.426C14.1047 22.426 13.7158 21.8588 13.7158 21.3462C13.7158 20.7468 14.2053 20.2346 14.9008 20.2346C15.5732 20.2346 15.9941 20.7606 15.9941 21.3144C15.9942 21.8539 15.578 22.426 14.8321 22.426ZM15.4039 22.0556C15.5138 21.909 15.5414 21.7261 15.5414 21.5475C15.5414 21.1451 15.3491 20.3766 14.7819 20.3766C14.6308 20.3766 14.4799 20.4361 14.3702 20.5322C14.1918 20.6923 14.1596 20.8935 14.1596 21.0903C14.1596 21.5431 14.3838 22.2888 14.9374 22.2888C15.1158 22.2887 15.2988 22.2019 15.4039 22.0556Z" fill="#3F63AC"/>
<path d="M12.3527 22.426C11.6253 22.426 11.2363 21.8588 11.2363 21.3462C11.2363 20.7468 11.726 20.2346 12.4214 20.2346C13.0938 20.2346 13.5147 20.7606 13.5147 21.3144C13.5147 21.8539 13.0986 22.426 12.3527 22.426ZM12.9246 22.0556C13.0345 21.909 13.0619 21.7261 13.0619 21.5475C13.0619 21.1451 12.8698 20.3766 12.3025 20.3766C12.1516 20.3766 12.0005 20.4361 11.8907 20.5322C11.7123 20.6923 11.6803 20.8935 11.6803 21.0903C11.6803 21.5431 11.9043 22.2888 12.4581 22.2888C12.6366 22.2887 12.8195 22.2019 12.9246 22.0556Z" fill="#3F63AC"/>
<path d="M10.8868 22.3543L10.2291 22.5062C9.96215 22.5475 9.72302 22.5843 9.47021 22.5843C8.20065 22.5843 7.71777 21.6506 7.71777 20.919C7.71777 20.0268 8.40302 19.199 9.57602 19.199C9.82446 19.199 10.0635 19.2357 10.2796 19.2955C10.6246 19.3922 10.7856 19.5117 10.8868 19.5807L10.505 19.944L10.3441 19.9808L10.4591 19.7968C10.3028 19.645 10.0173 19.3645 9.47471 19.3645C8.74802 19.3645 8.20065 19.9166 8.20065 20.7215C8.20065 21.586 8.82615 22.4 9.82877 22.4C10.1234 22.4 10.275 22.3405 10.413 22.285V21.5447L9.71859 21.5814L10.0865 21.3836H11.0616L10.9421 21.4985C10.9096 21.526 10.9053 21.5354 10.8961 21.572C10.8913 21.6135 10.887 21.7471 10.887 21.7929V22.3543H10.8868Z" fill="#3F63AC"/>
<path d="M19.1713 22.2221C19.0195 22.2081 18.9875 22.1807 18.9875 22.0012V21.9504V19.3978C18.9885 19.3879 18.9891 19.3778 18.9901 19.3681C19.0085 19.2071 19.0546 19.1796 19.1972 19.0967H18.5395L18.1943 19.2622H18.546V19.2644L18.5458 19.2628V21.9504V22.1024C18.5458 22.1944 18.5275 22.2081 18.4217 22.346H19.2358L19.4061 22.2449C19.3277 22.2357 19.2496 22.2311 19.1713 22.2221Z" fill="#3F63AC"/>
<path d="M21.0433 22.2643C20.9932 22.2917 20.943 22.3238 20.8929 22.3466C20.7419 22.415 20.5867 22.4333 20.4494 22.4333C20.3034 22.4333 20.0749 22.4241 19.8419 22.2552C19.5178 22.0268 19.376 21.634 19.376 21.2912C19.376 20.5833 19.9517 20.2361 20.422 20.2361C20.5866 20.2361 20.7557 20.2772 20.8929 20.3641C21.1209 20.5145 21.1803 20.7109 21.2122 20.816L20.139 21.2501L19.7869 21.2775C19.901 21.8577 20.294 22.1956 20.728 22.1956C20.9611 22.1956 21.1302 22.1135 21.2854 22.0358L21.0433 22.2643ZM20.614 20.9028C20.7007 20.871 20.7462 20.8436 20.7462 20.7796C20.7462 20.597 20.5408 20.3867 20.2941 20.3867C20.1112 20.3867 19.7687 20.5285 19.7687 21.0217C19.7687 21.0994 19.7779 21.1816 19.7825 21.264L20.614 20.9028Z" fill="#3F63AC"/>
<path d="M18.8033 23.364L18.963 24.1073C18.9948 24.2705 19.0268 24.4215 19.049 24.5726H19.0563C19.0834 24.4245 19.1226 24.2675 19.1619 24.1103L19.3559 23.3641H19.5377L19.722 24.0952C19.7662 24.2705 19.8006 24.4246 19.8275 24.5727H19.8348C19.8545 24.4246 19.8865 24.2705 19.9258 24.0982L20.0953 23.3641H20.309L19.9258 24.8264H19.7292L19.5475 24.1285C19.5057 23.9653 19.4713 23.8202 19.4419 23.648H19.4369C19.4075 23.8233 19.3706 23.9743 19.3288 24.1314L19.1373 24.8263H18.9407L18.582 23.364H18.8033Z" fill="#3F63AC"/>
<path d="M21.5188 24.4753C21.5188 24.6022 21.5242 24.7261 21.5378 24.8259H21.323L21.304 24.6414H21.2959C21.2225 24.7563 21.081 24.8591 20.8935 24.8591C20.6271 24.8591 20.4912 24.6504 20.4912 24.4389C20.4912 24.0853 20.7738 23.8919 21.2822 23.8949V23.8648C21.2822 23.7468 21.2523 23.5263 20.9832 23.5293C20.8581 23.5293 20.7305 23.5686 20.6381 23.638L20.5836 23.4598C20.6924 23.3841 20.8528 23.3328 21.0186 23.3328C21.421 23.3328 21.5188 23.638 21.5188 23.9281V24.4753ZM21.2877 24.0793C21.0268 24.0733 20.7305 24.1246 20.7305 24.4088C20.7305 24.5841 20.8338 24.6626 20.9533 24.6626C21.1273 24.6626 21.2388 24.5417 21.2769 24.4179C21.285 24.3878 21.2877 24.3575 21.2877 24.3333V24.0793Z" fill="#3F63AC"/>
<path d="M21.8691 22.7246H22.0854V24.8264H21.8691V22.7246Z" fill="#3F63AC"/>
<path d="M22.3643 22.7246H22.5805V24.8264H22.3643V22.7246Z" fill="#3F63AC"/>
<path d="M22.9907 24.1428C22.9958 24.5025 23.1907 24.6504 23.422 24.6504C23.5856 24.6504 23.6869 24.6172 23.77 24.575L23.8116 24.7655C23.731 24.8078 23.5907 24.8591 23.3908 24.8591C23.0038 24.8591 22.7725 24.5598 22.7725 24.1186C22.7725 23.6774 22.9958 23.3328 23.3623 23.3328C23.7752 23.3328 23.8818 23.7498 23.8818 24.0189C23.8818 24.0733 23.8792 24.1126 23.874 24.1428H22.9907ZM23.6609 23.9524C23.6636 23.7861 23.6013 23.5231 23.3441 23.5231C23.1103 23.5231 23.0116 23.768 22.9935 23.9524H23.6609Z" fill="#3F63AC"/>
<path d="M24.3612 22.8413V23.3618H24.659V23.5646H24.3612V24.3539C24.3612 24.5352 24.4013 24.6381 24.5172 24.6381C24.5739 24.6381 24.607 24.6321 24.6378 24.62L24.6473 24.8227C24.607 24.8408 24.5432 24.8589 24.4628 24.8589C24.3658 24.8589 24.2879 24.8166 24.2382 24.747C24.1814 24.6652 24.1579 24.5352 24.1579 24.3629V23.5646H23.9805V23.3618H24.1579V22.9199L24.3612 22.8413Z" fill="#3F63AC"/>
<defs>
<linearGradient id="paint0_linear_774_836" x1="19.776" y1="12.6603" x2="16.0498" y2="14.3193" gradientUnits="userSpaceOnUse">
<stop stop-color="#FFCC00"/>
<stop offset="1" stop-color="#CC9900"/>
</linearGradient>
<linearGradient id="paint1_linear_774_836" x1="11.5897" y1="10.4635" x2="15.8256" y2="16.2539" gradientUnits="userSpaceOnUse">
<stop stop-color="#6699CC"/>
<stop offset="1" stop-color="#3366CC"/>
</linearGradient>
<linearGradient id="paint2_linear_774_836" x1="20.0384" y1="6.92647" x2="20.0384" y2="18.9564" gradientUnits="userSpaceOnUse">
<stop stop-color="#57B149"/>
<stop offset="1" stop-color="#39823E"/>
</linearGradient>
<linearGradient id="paint3_linear_774_836" x1="15.6679" y1="8.41334" x2="15.6679" y2="17.5705" gradientUnits="userSpaceOnUse">
<stop stop-color="#DE1F26"/>
<stop offset="1" stop-color="#CC0000"/>
</linearGradient>
</defs>
</svg>
