<svg width="24" height="24" viewBox="0 0 24 24" fill="none" xmlns="http://www.w3.org/2000/svg">
<path d="M24 4.92846V5.03159C23.0769 8.29627 22.1464 11.5639 21.2086 14.8346C21.1195 15.1449 21.0323 15.3206 20.7689 15.4533C20.6864 15.4952 20.4934 15.5161 20.19 15.5161C14.6916 15.5158 10.645 15.5153 8.05031 15.5147C7.74594 15.5147 7.55328 15.5316 7.47234 15.5653C6.90141 15.8044 6.89109 16.5619 7.43203 16.8544C7.52734 16.9056 7.75625 16.9289 8.11875 16.9242C8.36437 16.9211 12.4302 16.9205 20.3161 16.9224C20.4902 16.9224 20.6095 16.9316 20.6742 16.95C21.3061 17.1305 21.3591 17.9738 20.7778 18.263C20.6778 18.3127 20.5152 18.3347 20.2898 18.3291C20.1767 18.3263 19.9095 18.3267 19.4883 18.3305C19.4267 18.3311 19.3473 18.3369 19.2502 18.3478C19.25 18.3479 19.2499 18.348 19.2498 18.3481C19.2497 18.3482 19.2496 18.3483 19.2496 18.3484C19.2495 18.3486 19.2495 18.3487 19.2495 18.3488C19.2496 18.349 19.2496 18.3491 19.2497 18.3492C19.25 18.3499 19.2505 18.3503 19.2511 18.3506C19.2521 18.3518 19.2533 18.3528 19.2545 18.3534C19.2557 18.3541 19.2569 18.3544 19.2581 18.3544C19.4987 18.3641 19.7295 18.4206 19.9505 18.5241C20.4286 18.7478 20.7778 19.1 20.9981 19.5806C21.4786 20.6278 20.9845 21.9042 19.9247 22.3617C19.5606 22.5189 19.1883 22.5724 18.8077 22.5221C17.662 22.3716 16.8455 21.3253 16.9922 20.1764C17.0412 19.7914 17.1844 19.4471 17.4216 19.1433C17.7181 18.7633 18.1164 18.5096 18.6164 18.3821C18.6489 18.3736 18.743 18.366 18.8986 18.3591C18.9003 18.359 18.9018 18.3582 18.9029 18.357C18.9041 18.3558 18.9047 18.3542 18.9047 18.3525C18.9048 18.3517 18.9046 18.3508 18.9044 18.35C18.9041 18.3492 18.9037 18.3484 18.9031 18.3477C18.9025 18.3471 18.9018 18.3466 18.9011 18.3462C18.9003 18.3458 18.8995 18.3456 18.8986 18.3455C18.7595 18.3339 18.6631 18.3281 18.6094 18.3281C15.6394 18.3281 12.6784 18.3281 9.72656 18.3281C9.58188 18.3281 9.44375 18.3344 9.31219 18.3469C9.31196 18.3468 9.31174 18.3467 9.31158 18.3467C9.31142 18.3468 9.31133 18.3469 9.31133 18.3471C9.31133 18.3473 9.31142 18.3475 9.31158 18.3477C9.31174 18.348 9.31196 18.3482 9.31219 18.3483C9.43219 18.368 9.54937 18.3661 9.67219 18.4013C10.2081 18.5541 10.6205 18.8539 10.9092 19.3008C11.3142 19.9275 11.3559 20.7474 11.0039 21.4088C10.8236 21.7478 10.5853 22.011 10.2891 22.1981C9.80719 22.5025 9.29562 22.6039 8.75437 22.5024C8.20187 22.3989 7.75766 22.1135 7.42172 21.646C7.19766 21.3341 7.07203 20.9814 7.04484 20.588C6.99328 19.8422 7.32141 19.1588 7.92703 18.721C8.15734 18.5544 8.42797 18.438 8.73891 18.3717C8.74076 18.3711 8.74252 18.3708 8.74406 18.3708L8.95828 18.3577C8.95957 18.3576 8.96084 18.3573 8.96201 18.3568C8.96319 18.3562 8.96424 18.3554 8.96511 18.3545C8.96598 18.3535 8.96665 18.3524 8.96709 18.3512C8.96753 18.35 8.96772 18.3487 8.96766 18.3474V18.3469C8.96754 18.3451 8.96671 18.3433 8.96533 18.342C8.96394 18.3407 8.9621 18.34 8.96016 18.3399C8.69766 18.3289 8.42 18.3249 8.12719 18.3277C7.73031 18.3317 7.45531 18.3158 7.30219 18.2799C6.87094 18.1789 6.51078 17.9783 6.22172 17.678C5.21859 16.636 5.53453 14.8978 6.87281 14.2988C6.87971 14.2956 6.88531 14.2901 6.88872 14.2833C6.89212 14.2765 6.89312 14.2687 6.89156 14.2613L4.36172 2.87721C4.36064 2.87217 4.35787 2.86765 4.35386 2.8644C4.34985 2.86116 4.34485 2.85939 4.33969 2.8594C2.92594 2.85909 1.74125 2.85924 0.785625 2.85987C0.343125 2.86018 0.08125 2.64659 0 2.21909V2.10002C0.04875 1.81627 0.181406 1.62518 0.397969 1.52674C0.509531 1.47612 0.724219 1.45081 1.04203 1.45081C3.47766 1.45206 4.75875 1.45377 4.88531 1.45596C5.13594 1.46034 5.32953 1.54768 5.46609 1.71799C5.54422 1.81518 5.61688 2.01815 5.68406 2.3269C5.91094 3.36909 6.05187 4.00831 6.10687 4.24456C6.10817 4.25055 6.11148 4.25592 6.11626 4.25976C6.12104 4.2636 6.12699 4.26568 6.13312 4.26565C12.2272 4.26596 17.9328 4.26581 23.25 4.26518C23.6812 4.26518 23.9312 4.48627 24 4.92846ZM8.29547 14.0977C8.29623 14.1011 8.29814 14.1041 8.30087 14.1062C8.30361 14.1084 8.307 14.1095 8.31047 14.1094H19.943C19.9462 14.1094 19.9494 14.1084 19.952 14.1064C19.9547 14.1045 19.9566 14.1018 19.9575 14.0986L22.3598 5.69112C22.3605 5.68891 22.3606 5.68658 22.3602 5.68431C22.3598 5.68204 22.3589 5.6799 22.3576 5.67804C22.3562 5.67618 22.3544 5.67466 22.3524 5.67359C22.3503 5.67253 22.3481 5.67195 22.3458 5.6719H6.44203C6.43979 5.67192 6.43758 5.67243 6.43557 5.67341C6.43356 5.67439 6.43179 5.67581 6.43039 5.67757C6.429 5.67932 6.42802 5.68136 6.42752 5.68354C6.42702 5.68573 6.42701 5.688 6.4275 5.69018L8.29547 14.0977ZM9.84094 20.4375C9.84094 20.2518 9.76715 20.0737 9.63582 19.9423C9.50449 19.811 9.32636 19.7372 9.14062 19.7372C8.95489 19.7372 8.77676 19.811 8.64543 19.9423C8.5141 20.0737 8.44031 20.2518 8.44031 20.4375C8.44031 20.6233 8.5141 20.8014 8.64543 20.9327C8.77676 21.0641 8.95489 21.1378 9.14062 21.1378C9.32636 21.1378 9.50449 21.0641 9.63582 20.9327C9.76715 20.8014 9.84094 20.6233 9.84094 20.4375ZM19.7784 20.4375C19.7784 20.2518 19.7047 20.0737 19.5733 19.9423C19.442 19.811 19.2639 19.7372 19.0781 19.7372C18.8924 19.7372 18.7143 19.811 18.5829 19.9423C18.4516 20.0737 18.3778 20.2518 18.3778 20.4375C18.3778 20.6233 18.4516 20.8014 18.5829 20.9327C18.7143 21.0641 18.8924 21.1378 19.0781 21.1378C19.2639 21.1378 19.442 21.0641 19.5733 20.9327C19.7047 20.8014 19.7784 20.6233 19.7784 20.4375Z" fill="#16675C"/>
</svg>
