<svg width="32" height="32" viewBox="0 0 32 32" fill="none" xmlns="http://www.w3.org/2000/svg">
<path d="M30.117 6.4187C30.9829 6.4187 31.6874 7.12314 31.6874 7.98908V24.1078C31.6874 24.9736 30.983 25.6781 30.117 25.6781H1.88385C1.01798 25.6781 0.313477 24.9737 0.313477 24.1078V7.98908C0.313477 7.1232 1.01791 6.4187 1.88385 6.4187H30.117ZM30.117 6.1062H1.88385C0.843976 6.1062 0.000976562 6.9492 0.000976562 7.98908V24.1078C0.000976562 25.1478 0.843976 25.9906 1.88385 25.9906H30.117C31.157 25.9906 31.9999 25.1478 31.9999 24.1078V7.98908C31.9999 6.9492 31.157 6.1062 30.117 6.1062Z" fill="#E20613"/>
<path d="M24.3637 17.149C24.4212 18.8687 24.4783 20.6457 24.3924 22.3941C24.335 23.0821 23.905 23.7414 23.2747 24.1427C22.7873 24.4581 22.1853 24.4867 21.5547 24.5152L19.276 24.4867L19.2617 9.89737C19.3763 8.92287 20.093 8.09162 21.0102 7.83362C22.1282 7.69037 23.16 7.74768 24.3349 7.71899L24.3923 8.46431V16.7478L24.3635 16.7764L24.3637 17.149Z" fill="#009540"/>
<path d="M7.85455 16.6042V9.72524C7.99774 8.95124 8.62843 8.2348 9.37362 7.94805C10.4914 7.60418 11.7812 7.8048 12.9277 7.77612C12.9851 8.89387 12.9277 10.2984 12.9565 11.2729L13.0138 20.2444C12.8704 21.6202 13.3863 23.4832 11.6666 24.2571C10.5774 24.8019 9.11555 24.4579 7.88305 24.5725L7.85449 24.3719V16.8908L7.85455 16.6042Z" fill="#0069B3"/>
<path d="M7.85449 16.8908C8.31299 17.4928 8.94362 17.9515 9.71749 17.9803C10.6633 18.0661 11.8959 18.1521 12.5264 17.2635C12.9564 16.805 12.6984 16.1744 12.7845 15.5724L12.7557 14.4832C12.2111 14.3686 11.7239 14.4832 11.0934 14.4545C10.7781 15.6297 11.6092 16.9481 10.2621 17.5502C9.94674 17.636 9.48818 17.5786 9.17293 17.3782C8.65705 17.2635 8.94368 16.4322 8.25574 16.6615L7.85455 16.6042L7.85449 16.8908Z" fill="white"/>
<path d="M18.6606 8.72218L18.6891 22.6809C18.4886 23.3403 17.9727 24.0566 17.2563 24.3148C16.1668 24.6876 14.8197 24.5153 13.6159 24.5153L13.5586 9.81155C13.6159 9.12368 14.0745 8.52174 14.6765 8.14905C15.1066 7.86243 15.6223 7.77649 16.1669 7.7478H18.6032L18.6606 8.72218Z" fill="#E20613"/>
<path d="M18.4315 14.4833C18.4888 14.6553 18.4315 14.7985 18.46 14.9992C17.6004 14.77 16.5397 14.5118 15.766 15.1425C15.4792 15.4865 15.3072 15.8304 15.336 16.289C15.4218 16.805 15.7372 17.2922 16.2244 17.4929C16.9696 17.7222 17.7437 17.5215 18.4314 17.3495C18.46 17.4929 18.4887 17.6934 18.4314 17.8083H15.1353C14.562 17.6934 14.1034 17.3783 13.8453 16.805C13.616 16.2604 13.7309 15.5151 14.1319 15.0565C14.4758 14.6553 14.9632 14.426 15.5077 14.4545L18.4315 14.4833Z" fill="white"/>
<path d="M24.3641 17.1489C24.2781 17.4928 23.9915 17.8083 23.6476 17.8656H19.635L19.4916 17.8083C19.4916 16.6615 19.4628 15.5724 19.5203 14.4545H22.0711C22.8736 14.5406 23.7622 14.1966 24.1347 14.9418C24.2493 15.1998 24.2208 15.5438 24.0201 15.7444C23.9055 15.945 23.6476 15.9736 23.5903 16.1171C23.9055 16.203 24.2493 16.461 24.3641 16.7763V17.1489ZM20.9246 14.7984C20.8386 15.1138 20.8386 15.5437 20.8961 15.8876C21.498 15.859 22.2719 16.0882 22.6732 15.6297C22.8166 15.4577 22.7305 15.1711 22.6444 15.0278C22.1858 14.6264 21.4978 14.8845 20.9246 14.7984ZM22.4726 16.3748C21.928 16.2889 21.3832 16.3176 20.8673 16.3464C20.8385 16.7762 20.8673 17.1201 20.9246 17.5214C21.4978 17.5214 22.1286 17.6074 22.6443 17.3494C22.7878 17.2061 22.8737 16.9769 22.8166 16.7762C22.7878 16.6042 22.6443 16.4609 22.4726 16.3748Z" fill="white"/>
</svg>
