<svg width="32" height="32" viewBox="0 0 32 32" fill="none" xmlns="http://www.w3.org/2000/svg">
<g clip-path="url(#clip0_774_795)">
<path d="M30.1698 6.44995C31.0357 6.44995 31.7402 7.15439 31.7402 8.02033V24.1391C31.7402 25.005 31.0358 25.7095 30.1698 25.7095H1.93659C1.07071 25.7095 0.366211 25.005 0.366211 24.1391V8.02033C0.366211 7.15445 1.07065 6.44995 1.93659 6.44995H30.1698ZM30.1698 6.13745H1.93659C0.896711 6.13745 0.0537109 6.98045 0.0537109 8.02033V24.1391C0.0537109 25.179 0.896711 26.022 1.93659 26.022H30.1698C31.2098 26.022 32.0527 25.179 32.0527 24.1391V8.02033C32.0527 6.98045 31.2097 6.13745 30.1698 6.13745Z" fill="#E30613"/>
<path fill-rule="evenodd" clip-rule="evenodd" d="M16.0983 22.1982C17.5137 23.5024 19.4146 24.2933 21.4821 24.2933C25.9219 24.2933 29.5157 20.672 29.5157 16.2179C29.5157 11.7503 25.9219 8.12891 21.4821 8.12891C19.4146 8.12891 17.5137 8.91972 16.0983 10.224C14.4751 11.7085 13.4482 13.8455 13.4482 16.2179C13.4482 18.5906 14.4751 20.7276 16.0983 22.1982Z" fill="#FAB31E"/>
<path fill-rule="evenodd" clip-rule="evenodd" d="M18.6928 15.3577C18.6651 15.0663 18.6096 14.7888 18.5539 14.4974H13.6422C13.6977 14.206 13.7808 13.9285 13.8641 13.651H18.3182C18.2208 13.3598 18.1099 13.0683 17.9849 12.7908H14.2111C14.3498 12.4996 14.5024 12.2081 14.6689 11.9306H17.5133C17.3329 11.6392 17.1249 11.3478 16.9027 11.0842H15.2793C15.5291 10.779 15.8067 10.4877 16.0979 10.224C14.6689 8.93359 12.7818 8.12891 10.7006 8.12891C6.27455 8.12891 2.66699 11.7503 2.66699 16.2179C2.66699 20.672 6.27455 24.2933 10.7006 24.2933C12.7819 24.2933 14.6689 23.5024 16.0979 22.1982C16.3894 21.9344 16.653 21.657 16.9027 21.3517H15.2793C15.0573 21.0743 14.8631 20.7968 14.6689 20.4915H17.5132C17.6936 20.2141 17.8462 19.9366 17.9849 19.6313H14.211C14.0859 19.3538 13.9612 19.0763 13.864 18.7848H18.3181C18.4152 18.5073 18.4844 18.216 18.5538 17.9246C18.6096 17.6472 18.6649 17.3556 18.6927 17.0643C18.7204 16.7868 18.7344 16.5094 18.7344 16.2178C18.7344 15.9266 18.7205 15.6352 18.6928 15.3577Z" fill="#E40520"/>
<path fill-rule="evenodd" clip-rule="evenodd" d="M28.4473 18.0911C28.4473 17.9386 28.5581 17.8276 28.697 17.8276C28.8495 17.8276 28.9606 17.9386 28.9606 18.0911C28.9606 18.2298 28.8496 18.3549 28.697 18.3549C28.5582 18.3549 28.4473 18.2298 28.4473 18.0911ZM28.697 18.2853C28.808 18.2853 28.9051 18.2021 28.9051 18.0911C28.9051 17.98 28.808 17.8968 28.697 17.8968C28.5999 17.8968 28.5028 17.98 28.5028 18.0911C28.5028 18.2021 28.6 18.2853 28.697 18.2853ZM28.6693 18.2021H28.6138V17.9799H28.7109C28.725 17.9799 28.7525 17.9799 28.7664 17.9799C28.7941 17.9941 28.7941 18.0218 28.7941 18.0495C28.7941 18.0633 28.7803 18.091 28.7525 18.1051L28.808 18.2021H28.7387L28.711 18.1188H28.6693V18.2021V18.0773H28.6971C28.711 18.0773 28.725 18.0773 28.725 18.0633C28.7387 18.0633 28.7387 18.0495 28.7387 18.0356C28.7387 18.0356 28.7387 18.0218 28.725 18.0218C28.725 18.0077 28.7109 18.0218 28.6971 18.0218H28.6693V18.0773V18.2021H28.6693Z" fill="white"/>
<path fill-rule="evenodd" clip-rule="evenodd" d="M13.365 18.549C13.1015 18.6182 12.9073 18.6599 12.713 18.6599C12.2966 18.6599 12.0469 18.3962 12.0469 17.9245C12.0469 17.8275 12.0608 17.7302 12.0746 17.6192L12.1301 17.3L12.1718 17.0365L12.5464 14.761H13.379L13.2817 15.2605H13.8091L13.6842 16.093H13.157L12.935 17.4527C12.9209 17.5223 12.9209 17.5637 12.9209 17.5915C12.9209 17.7721 13.0042 17.8412 13.2125 17.8412C13.3094 17.8412 13.3927 17.8275 13.4759 17.8135L13.365 18.549Z" fill="#06326E"/>
<path fill-rule="evenodd" clip-rule="evenodd" d="M16.0562 18.5215C15.751 18.6047 15.4736 18.6462 15.1681 18.6462C14.2247 18.6462 13.6836 18.1467 13.6836 17.1615C13.6836 16.0101 14.3218 15.1775 15.2097 15.1775C15.9175 15.1775 16.3753 15.6494 16.3753 16.3846C16.3753 16.6342 16.3476 16.8703 16.2782 17.2032H14.5438C14.5298 17.2588 14.5298 17.2866 14.5298 17.3142C14.5298 17.7027 14.7935 17.8969 15.293 17.8969C15.6122 17.8969 15.8897 17.8278 16.1949 17.689L16.0562 18.5215ZM15.5427 16.5373C15.5427 16.4679 15.5427 16.4123 15.5427 16.3708C15.5427 16.0934 15.3903 15.9406 15.1265 15.9406C14.8491 15.9406 14.6547 16.1489 14.5716 16.5373H15.5427Z" fill="#06326E"/>
<path fill-rule="evenodd" clip-rule="evenodd" d="M6.70491 18.5906H5.84466L6.34416 15.441L5.22029 18.5906H4.62366L4.55423 15.455L4.02704 18.5906H3.18066L3.86054 14.4976H5.12323L5.15091 17.0227L5.99723 14.4976H7.38473L6.70491 18.5906Z" fill="#06326E"/>
<path fill-rule="evenodd" clip-rule="evenodd" d="M8.79987 17.1059C8.71655 17.0922 8.68887 17.0922 8.63337 17.0922C8.13374 17.0922 7.88406 17.2865 7.88406 17.5917C7.88406 17.8 8.00893 17.9387 8.20318 17.9387C8.61943 17.9388 8.78599 17.5917 8.79987 17.1059ZM9.49355 18.5907H8.74437L8.75824 18.2439C8.56393 18.5074 8.30031 18.6462 7.84249 18.6462C7.42618 18.6462 7.06543 18.2718 7.06543 17.7305C7.06543 17.5781 7.0933 17.4394 7.13474 17.3002C7.27349 16.787 7.78693 16.4679 8.57787 16.4541C8.67487 16.4541 8.82749 16.4541 8.96631 16.4679C8.99406 16.3569 8.99406 16.3154 8.99406 16.2458C8.99406 16.0238 8.81368 15.9547 8.41124 15.9547C8.16149 15.9547 7.88399 15.9961 7.68974 16.0656L7.56499 16.0933L7.50949 16.1071L7.63431 15.3579C8.03668 15.2332 8.32812 15.1775 8.64724 15.1775C9.39643 15.1775 9.7988 15.5244 9.7988 16.1626C9.7988 16.3291 9.81268 16.4541 9.75718 16.8148L9.56293 18.008L9.53518 18.2162L9.5213 18.3828L9.50743 18.4937L9.49355 18.5907Z" fill="#06326E"/>
<path fill-rule="evenodd" clip-rule="evenodd" d="M20.2467 15.2885C20.4964 15.2885 20.7184 15.3578 21.0235 15.5105L21.1763 14.6224C21.0931 14.5808 21.0653 14.5808 20.9542 14.5392L20.6073 14.442C20.4964 14.4143 20.3577 14.4004 20.2049 14.4004C19.7749 14.4004 19.5252 14.4143 19.2615 14.567C19.1228 14.6641 18.9424 14.7889 18.7482 15.011L18.6372 14.9832L17.7491 15.6075L17.7907 15.2607H16.875L16.334 18.5906H17.208L17.5271 16.8007C17.5271 16.8007 17.652 16.551 17.7075 16.4678C17.8739 16.2598 18.0127 16.2598 18.1932 16.2598C18.2208 16.2598 18.2486 16.2598 18.2626 16.2598C18.2347 16.454 18.2208 16.662 18.2208 16.898C18.2208 17.9801 18.8314 18.6601 19.7749 18.6601C20.0107 18.6601 20.2189 18.6324 20.538 18.5491L20.6905 17.6057C20.413 17.7581 20.1632 17.8278 19.9552 17.8278C19.4419 17.8278 19.1367 17.4393 19.1367 16.8285C19.1368 15.9267 19.5946 15.2885 20.2467 15.2885Z" fill="#06326E"/>
<path fill-rule="evenodd" clip-rule="evenodd" d="M27.6145 14.4976L27.4204 15.6631C27.2122 15.3441 26.9625 15.1913 26.6295 15.1913C26.1715 15.1913 25.7414 15.4551 25.4778 15.9546V15.9406L24.9228 15.6075L24.9783 15.2607H24.0487L23.5215 18.5906H24.3818L24.673 16.8007C24.673 16.8007 24.895 16.5509 24.9505 16.4677C25.0893 16.3013 25.228 16.2734 25.339 16.2597C25.2419 16.5372 25.1865 16.8703 25.1865 17.2447C25.1865 18.0774 25.6166 18.6324 26.2549 18.6324C26.574 18.6324 26.8238 18.5214 27.0596 18.2576L27.018 18.5906H27.8366L28.5025 14.4976L27.6145 14.4976ZM26.5463 17.8001C26.2549 17.8001 26.1022 17.5781 26.1022 17.1477C26.1022 16.4955 26.3795 16.0238 26.782 16.0238C27.0874 16.0238 27.24 16.2598 27.24 16.6761C27.24 17.3421 26.9625 17.8001 26.5463 17.8001Z" fill="#06326E"/>
<path fill-rule="evenodd" clip-rule="evenodd" d="M22.5366 17.1059C22.4533 17.0922 22.4255 17.0922 22.3701 17.0922C21.8706 17.0922 21.6209 17.2865 21.6209 17.5917C21.6209 17.8 21.7458 17.9387 21.94 17.9387C22.3562 17.9388 22.5227 17.5917 22.5366 17.1059ZM23.2303 18.5907H22.4672L22.495 18.2439C22.3007 18.5074 22.0371 18.6462 21.5793 18.6462C21.1492 18.6462 20.7744 18.2855 20.7744 17.7305C20.7744 16.9396 21.3712 16.4541 22.3146 16.4541C22.4117 16.4541 22.5644 16.4541 22.6892 16.4679C22.7169 16.3569 22.7309 16.3154 22.7309 16.2458C22.7309 16.0238 22.5505 15.9547 22.1342 15.9547C21.8984 15.9547 21.607 15.9961 21.4129 16.0656L21.3019 16.0933L21.2462 16.1071L21.3712 15.3579C21.7735 15.2332 22.0649 15.1775 22.384 15.1775C23.1332 15.1775 23.5218 15.5244 23.5218 16.1626C23.5218 16.3291 23.5494 16.4541 23.48 16.8148L23.2996 18.008L23.2719 18.2162L23.2442 18.3828L23.2303 18.4937V18.5907Z" fill="#06326E"/>
<path fill-rule="evenodd" clip-rule="evenodd" d="M11.3111 15.9683C11.4776 15.9683 11.7135 15.9824 11.9632 16.0238L12.0881 15.2469C11.8383 15.2192 11.5053 15.1775 11.3111 15.1775C10.3398 15.1775 10.0206 15.7049 10.0206 16.3153C10.0206 16.7176 10.2011 17.0091 10.6728 17.2311C11.0196 17.3975 11.0752 17.4252 11.0752 17.5781C11.0752 17.7861 10.8948 17.9111 10.5618 17.9111C10.2982 17.9111 10.0485 17.8692 9.77095 17.7723L9.67383 18.5352L9.6877 18.5492L9.8542 18.5769C9.90964 18.5907 9.9792 18.6047 10.0763 18.6184C10.2844 18.6324 10.4648 18.6462 10.5757 18.6462C11.547 18.6462 11.9494 18.2717 11.9494 17.5362C11.9494 17.0781 11.7273 16.8007 11.2972 16.6064C10.9226 16.44 10.881 16.4122 10.881 16.2597C10.881 16.1071 11.0475 15.9683 11.3111 15.9683Z" fill="#06326E"/>
<path fill-rule="evenodd" clip-rule="evenodd" d="M21.4121 14.3589L21.2594 15.2469C20.9541 15.0943 20.7321 15.0249 20.4823 15.0249C19.8302 15.0249 19.3723 15.6631 19.3723 16.5651C19.3723 17.1893 19.6776 17.564 20.1909 17.564C20.3991 17.564 20.6488 17.4949 20.9263 17.3558L20.7738 18.2855C20.4546 18.3688 20.2465 18.4105 20.0107 18.4105C19.0672 18.4105 18.4844 17.7305 18.4844 16.6343C18.4844 15.1775 19.2892 14.1509 20.4408 14.1509C20.5933 14.1509 20.7321 14.1648 20.8433 14.1925L21.1901 14.2758C21.3011 14.3173 21.3287 14.3312 21.4121 14.3589Z" fill="white"/>
<path fill-rule="evenodd" clip-rule="evenodd" d="M18.6092 14.9692C18.5815 14.9692 18.5535 14.9692 18.5259 14.9692C18.2344 14.9692 18.068 15.108 17.8043 15.5105L17.8875 14.997H17.0968L16.5557 18.3271H17.4297C17.7488 16.2874 17.832 15.9404 18.2483 15.9404C18.276 15.9404 18.276 15.9404 18.3038 15.9404C18.387 15.5382 18.498 15.2467 18.6369 14.9831L18.6092 14.9692Z" fill="white"/>
<path fill-rule="evenodd" clip-rule="evenodd" d="M13.5866 18.2854C13.3509 18.3687 13.1567 18.3964 12.9624 18.3964C12.5184 18.3964 12.2686 18.1467 12.2686 17.6612C12.2686 17.578 12.2824 17.4667 12.2963 17.3697L12.3519 17.0367L12.3934 16.7729L12.7682 14.4976H13.6284L13.5311 14.9971H13.9751L13.8642 15.8158H13.4202L13.1845 17.2032C13.1705 17.2587 13.1705 17.3002 13.1705 17.342C13.1705 17.5085 13.2537 17.578 13.462 17.578C13.5589 17.578 13.6424 17.578 13.6979 17.5502L13.5866 18.2854Z" fill="white"/>
<path fill-rule="evenodd" clip-rule="evenodd" d="M10.2433 16.0514C10.2433 16.4677 10.4375 16.7591 10.8953 16.9812C11.2562 17.1476 11.3117 17.2031 11.3117 17.3419C11.3117 17.5501 11.1591 17.6471 10.8122 17.6471C10.5485 17.6471 10.3127 17.6056 10.0352 17.5224L9.91016 18.2853L9.95184 18.2994L10.1045 18.3271C10.16 18.3408 10.2294 18.3549 10.3404 18.3549C10.5347 18.3826 10.7011 18.3826 10.8122 18.3826C11.7279 18.3826 12.158 18.0356 12.158 17.2726C12.158 16.8146 11.9777 16.5508 11.5475 16.3429C11.1729 16.1764 11.1312 16.1346 11.1312 15.9822C11.1312 15.8017 11.2839 15.7184 11.5614 15.7184C11.7278 15.7184 11.9638 15.7324 12.1857 15.7602L12.3106 14.9969C12.0886 14.9553 11.7418 14.9275 11.5475 14.9275C10.5762 14.9276 10.2294 15.4409 10.2433 16.0514Z" fill="white"/>
<path fill-rule="evenodd" clip-rule="evenodd" d="M28.0582 18.3273H27.2396L27.2812 18.0079C27.0454 18.2577 26.7956 18.3687 26.4765 18.3687C25.8381 18.3687 25.4219 17.8278 25.4219 16.995C25.4219 15.8851 26.0741 14.9416 26.8372 14.9416C27.1841 14.9416 27.4339 15.0943 27.6697 15.3996L27.8639 14.2339H28.7243L28.0582 18.3273ZM26.7817 17.5503C27.1841 17.5503 27.4616 17.0782 27.4616 16.4264C27.4616 15.9961 27.3089 15.7741 27.0038 15.7741C26.6153 15.7741 26.3237 16.2321 26.3237 16.8841C26.3237 17.3283 26.4765 17.5503 26.7817 17.5503Z" fill="white"/>
<path fill-rule="evenodd" clip-rule="evenodd" d="M16.2506 18.2577C15.9454 18.3551 15.6679 18.3964 15.3486 18.3964C14.3774 18.3964 13.8779 17.8833 13.8779 16.8981C13.8779 15.7604 14.5161 14.9138 15.3904 14.9138C16.1118 14.9138 16.5697 15.3856 16.5697 16.121C16.5697 16.3708 16.5419 16.6065 16.4587 16.9536H14.7381C14.7242 16.9949 14.7242 17.0227 14.7242 17.0504C14.7242 17.4393 14.9879 17.6335 15.4874 17.6335C15.8066 17.6335 16.0841 17.578 16.3894 17.4253L16.2506 18.2577ZM15.7648 16.2735C15.7648 16.2043 15.7648 16.1489 15.7648 16.1071C15.7648 15.8296 15.6124 15.677 15.3486 15.677C15.0711 15.677 14.8769 15.8852 14.7936 16.2735H15.7648Z" fill="white"/>
<path fill-rule="evenodd" clip-rule="evenodd" d="M6.92696 18.3273H6.06677L6.56621 15.1775L5.44234 18.3273H4.84565L4.77634 15.2052L4.24902 18.3273H3.44434L4.12421 14.2339H5.37296L5.41459 16.773L6.24702 14.2339H7.60684L6.92696 18.3273Z" fill="white"/>
<path fill-rule="evenodd" clip-rule="evenodd" d="M9.0777 16.8424C8.99445 16.8424 8.95282 16.8283 8.88351 16.8283C8.39782 16.8283 8.14807 17.0089 8.14807 17.3419C8.14807 17.5501 8.25907 17.6749 8.45332 17.6749C8.81413 17.6749 9.06388 17.3419 9.0777 16.8424ZM9.71595 18.3271H8.99445L9.00832 17.98C8.78632 18.2575 8.49488 18.3826 8.09257 18.3826C7.62088 18.3826 7.30176 18.0219 7.30176 17.4805C7.30176 16.6617 7.8567 16.1901 8.82788 16.1901C8.92501 16.1901 9.05001 16.2041 9.1887 16.2178C9.21645 16.1069 9.21644 16.0654 9.21644 16.0099C9.21644 15.7879 9.06388 15.7047 8.66145 15.7047C8.4117 15.7047 8.1342 15.7324 7.94001 15.7879L7.81513 15.8294L7.73188 15.8434L7.85676 15.0941C8.28682 14.9692 8.57832 14.9275 8.89738 14.9275C9.64657 14.9275 10.049 15.2606 10.049 15.8989C10.049 16.0654 10.0351 16.1901 9.9797 16.5648L9.78532 17.7443L9.75757 17.9522L9.7437 18.1187L9.72988 18.2437L9.71595 18.3271Z" fill="white"/>
<path fill-rule="evenodd" clip-rule="evenodd" d="M22.814 16.8424C22.7168 16.8424 22.6752 16.8283 22.6197 16.8283C22.1203 16.8283 21.8705 17.0089 21.8705 17.3419C21.8705 17.5501 21.9954 17.6749 22.1896 17.6749C22.5365 17.6749 22.8001 17.3419 22.814 16.8424ZM23.4521 18.3271H22.7306L22.7445 17.98C22.5226 18.2575 22.2312 18.3826 21.8289 18.3826C21.3571 18.3826 21.0381 18.0219 21.0381 17.4805C21.0381 16.6617 21.593 16.1901 22.5642 16.1901C22.6613 16.1901 22.7862 16.2041 22.9111 16.2178C22.9388 16.1069 22.9527 16.0654 22.9527 16.0099C22.9527 15.7879 22.8001 15.7047 22.3977 15.7047C22.148 15.7047 21.8567 15.7324 21.6623 15.7879L21.5514 15.8294L21.4681 15.8434L21.593 15.0941C22.0231 14.9692 22.3145 14.9275 22.6335 14.9275C23.3828 14.9275 23.7714 15.2606 23.7714 15.8989C23.7714 16.0654 23.7714 16.1901 23.7018 16.5648L23.5216 17.7443L23.4938 17.9522L23.4661 18.1187L23.4521 18.2437V18.3271H23.4521Z" fill="white"/>
<path fill-rule="evenodd" clip-rule="evenodd" d="M25.7828 14.9692C25.755 14.9692 25.7272 14.9692 25.6995 14.9692C25.4082 14.9692 25.2417 15.108 24.978 15.5105L25.0612 14.997H24.2705L23.7432 18.3271H24.6035C24.9226 16.2874 25.0059 15.9404 25.4221 15.9404C25.4499 15.9404 25.4499 15.9404 25.4777 15.9404C25.5609 15.5382 25.6719 15.2467 25.8106 14.9831L25.7828 14.9692Z" fill="white"/>
</g>
<defs>
<clipPath id="clip0_774_795">
<rect width="32" height="32" fill="white"/>
</clipPath>
</defs>
</svg>
