<svg width="24" height="24" viewBox="0 0 24 24" fill="none" xmlns="http://www.w3.org/2000/svg">
<path d="M24 4.92883V5.03195C23.0769 8.29664 22.1464 11.5643 21.2086 14.8349C21.1195 15.1452 21.0323 15.321 20.7689 15.4537C20.6864 15.4955 20.4934 15.5165 20.19 15.5165C14.6916 15.5162 10.645 15.5157 8.05031 15.5151C7.74594 15.5151 7.55328 15.532 7.47234 15.5657C6.90141 15.8048 6.89109 16.5623 7.43203 16.8548C7.52734 16.906 7.75625 16.9293 8.11875 16.9246C8.36438 16.9215 12.4302 16.9209 20.3161 16.9227C20.4902 16.9227 20.6095 16.932 20.6742 16.9504C21.3061 17.1309 21.3591 17.9741 20.7778 18.2634C20.6778 18.313 20.5152 18.3351 20.2898 18.3295C20.1767 18.3266 19.9095 18.3271 19.4883 18.3309C19.4267 18.3315 19.3473 18.3373 19.2502 18.3482C19.25 18.3483 19.2499 18.3483 19.2498 18.3484C19.2497 18.3485 19.2496 18.3487 19.2496 18.3488C19.2495 18.3489 19.2495 18.3491 19.2495 18.3492C19.2496 18.3494 19.2496 18.3495 19.2497 18.3496C19.25 18.3502 19.2505 18.3507 19.2511 18.351C19.2521 18.3522 19.2533 18.3531 19.2545 18.3538C19.2557 18.3544 19.2569 18.3548 19.2581 18.3548C19.4988 18.3645 19.7295 18.421 19.9505 18.5245C20.4286 18.7482 20.7778 19.1004 20.9981 19.581C21.4786 20.6282 20.9845 21.9046 19.9247 22.3621C19.5606 22.5193 19.1883 22.5727 18.8077 22.5224C17.662 22.372 16.8455 21.3257 16.9922 20.1768C17.0413 19.7918 17.1844 19.4474 17.4216 19.1437C17.7181 18.7637 18.1164 18.5099 18.6164 18.3824C18.6489 18.374 18.743 18.3663 18.8986 18.3595C18.9003 18.3593 18.9018 18.3586 18.9029 18.3574C18.9041 18.3562 18.9047 18.3546 18.9047 18.3529C18.9048 18.352 18.9046 18.3512 18.9044 18.3503C18.9041 18.3495 18.9037 18.3488 18.9031 18.3481C18.9025 18.3475 18.9018 18.3469 18.9011 18.3465C18.9003 18.3461 18.8995 18.3459 18.8986 18.3459C18.7595 18.3343 18.6631 18.3285 18.6094 18.3285C15.6394 18.3285 12.6784 18.3285 9.72656 18.3285C9.58187 18.3285 9.44375 18.3348 9.31219 18.3473C9.31196 18.3471 9.31174 18.3471 9.31158 18.3471C9.31142 18.3471 9.31133 18.3473 9.31133 18.3474C9.31133 18.3476 9.31142 18.3479 9.31158 18.3481C9.31174 18.3483 9.31196 18.3485 9.31219 18.3487C9.43219 18.3684 9.54937 18.3665 9.67219 18.4016C10.2081 18.5545 10.6205 18.8543 10.9092 19.3012C11.3142 19.9279 11.3559 20.7477 11.0039 21.4091C10.8236 21.7482 10.5853 22.0113 10.2891 22.1985C9.80719 22.5029 9.29562 22.6043 8.75437 22.5027C8.20187 22.3993 7.75766 22.1138 7.42172 21.6463C7.19766 21.3345 7.07203 20.9818 7.04484 20.5884C6.99328 19.8426 7.32141 19.1591 7.92703 18.7213C8.15734 18.5548 8.42797 18.4384 8.73891 18.3721C8.74076 18.3715 8.74252 18.3712 8.74406 18.3712L8.95828 18.358C8.95957 18.358 8.96084 18.3577 8.96201 18.3571C8.96319 18.3566 8.96424 18.3558 8.96511 18.3548C8.96598 18.3539 8.96665 18.3528 8.96709 18.3515C8.96753 18.3503 8.96772 18.349 8.96766 18.3477V18.3473C8.96754 18.3454 8.96671 18.3437 8.96533 18.3424C8.96394 18.3411 8.9621 18.3403 8.96016 18.3402C8.69766 18.3293 8.42 18.3252 8.12719 18.328C7.73031 18.3321 7.45531 18.3162 7.30219 18.2802C6.87094 18.1793 6.51078 17.9787 6.22172 17.6784C5.21859 16.6363 5.53453 14.8982 6.87281 14.2991C6.87971 14.2959 6.88531 14.2905 6.88872 14.2837C6.89212 14.2768 6.89312 14.2691 6.89156 14.2616L4.36172 2.87758C4.36064 2.87253 4.35787 2.86801 4.35386 2.86477C4.34985 2.86153 4.34485 2.85976 4.33969 2.85977C2.92594 2.85945 1.74125 2.85961 0.785625 2.86023C0.343125 2.86055 0.08125 2.64695 0 2.21945V2.10039C0.04875 1.81664 0.181406 1.62555 0.397969 1.52711C0.509531 1.47648 0.724219 1.45117 1.04203 1.45117C3.47766 1.45242 4.75875 1.45414 4.88531 1.45633C5.13594 1.4607 5.32953 1.54805 5.46609 1.71836C5.54422 1.81555 5.61688 2.01852 5.68406 2.32727C5.91094 3.36945 6.05188 4.00867 6.10687 4.24492C6.10817 4.25092 6.11148 4.25628 6.11626 4.26012C6.12104 4.26397 6.12699 4.26605 6.13312 4.26602C12.2272 4.26633 17.9328 4.26617 23.25 4.26555C23.6812 4.26555 23.9312 4.48664 24 4.92883ZM8.29547 14.098C8.29623 14.1014 8.29814 14.1045 8.30087 14.1066C8.30361 14.1087 8.307 14.1098 8.31047 14.1098H19.943C19.9462 14.1098 19.9494 14.1088 19.952 14.1068C19.9547 14.1049 19.9566 14.1021 19.9575 14.099L22.3598 5.69148C22.3605 5.68928 22.3606 5.68695 22.3602 5.68468C22.3598 5.68241 22.3589 5.68026 22.3576 5.6784C22.3562 5.67655 22.3544 5.67503 22.3524 5.67396C22.3503 5.6729 22.3481 5.67232 22.3458 5.67227H6.44203C6.43979 5.67228 6.43758 5.6728 6.43557 5.67378C6.43356 5.67476 6.43179 5.67618 6.43039 5.67793C6.429 5.67968 6.42802 5.68173 6.42752 5.68391C6.42702 5.68609 6.42701 5.68836 6.4275 5.69055L8.29547 14.098ZM9.84094 20.4379C9.84094 20.2522 9.76715 20.074 9.63582 19.9427C9.50449 19.8114 9.32636 19.7376 9.14062 19.7376C8.95489 19.7376 8.77676 19.8114 8.64543 19.9427C8.5141 20.074 8.44031 20.2522 8.44031 20.4379C8.44031 20.6236 8.5141 20.8018 8.64543 20.9331C8.77676 21.0644 8.95489 21.1382 9.14062 21.1382C9.32636 21.1382 9.50449 21.0644 9.63582 20.9331C9.76715 20.8018 9.84094 20.6236 9.84094 20.4379ZM19.7784 20.4379C19.7784 20.2522 19.7047 20.074 19.5733 19.9427C19.442 19.8114 19.2639 19.7376 19.0781 19.7376C18.8924 19.7376 18.7143 19.8114 18.5829 19.9427C18.4516 20.074 18.3778 20.2522 18.3778 20.4379C18.3778 20.6236 18.4516 20.8018 18.5829 20.9331C18.7143 21.0644 18.8924 21.1382 19.0781 21.1382C19.2639 21.1382 19.442 21.0644 19.5733 20.9331C19.7047 20.8018 19.7784 20.6236 19.7784 20.4379Z" fill="white"/>
</svg>
