<svg width="32" height="32" viewBox="0 0 32 32" fill="none" xmlns="http://www.w3.org/2000/svg">
<g clip-path="url(#clip0_774_785)">
<path d="M30.1698 6.44995C31.0357 6.44995 31.7402 7.15439 31.7402 8.02033V24.1391C31.7402 25.005 31.0358 25.7095 30.1698 25.7095H1.93659C1.07071 25.7095 0.366211 25.005 0.366211 24.1391V8.02033C0.366211 7.15445 1.07065 6.44995 1.93659 6.44995H30.1698ZM30.1698 6.13745H1.93659C0.896711 6.13745 0.0537109 6.98045 0.0537109 8.02033V24.1391C0.0537109 25.179 0.896711 26.022 1.93659 26.022H30.1698C31.2098 26.022 32.0527 25.179 32.0527 24.1391V8.02033C32.0527 6.98045 31.2097 6.13745 30.1698 6.13745Z" fill="#005098"/>
<path d="M11.9297 20.0691L13.2828 12.1265H15.4486L14.0931 20.0691H11.9297Z" fill="#005098"/>
<path d="M21.9464 12.322C21.5176 12.1609 20.8453 11.9883 20.0058 11.9883C17.8667 11.9883 16.3598 13.0654 16.3465 14.6095C16.3344 15.7505 17.4221 16.3877 18.2434 16.7675C19.0865 17.1569 19.3699 17.4052 19.3663 17.7529C19.3603 18.2853 18.6929 18.5281 18.0703 18.5281C17.2042 18.5281 16.7439 18.4082 16.0328 18.1114L15.7542 17.9854L15.4502 19.7637C15.9553 19.9853 16.8904 20.1773 17.8619 20.1869C20.1379 20.1869 21.6145 19.1222 21.6314 17.473C21.6399 16.57 21.0634 15.8826 19.8145 15.3153C19.0574 14.9477 18.5936 14.7027 18.5984 14.3305C18.5984 14.0005 18.9908 13.6474 19.8388 13.6474C20.5461 13.6362 21.0598 13.7907 21.4583 13.9517L21.6533 14.0435L21.9464 12.322Z" fill="#005098"/>
<path d="M27.4981 12.134H25.8252C25.3068 12.134 24.9192 12.2754 24.6914 12.7927L21.4766 20.072H23.7502C23.7502 20.072 24.1209 19.0933 24.2056 18.8783C24.454 18.8783 26.6622 18.882 26.9783 18.882C27.0425 19.1599 27.2412 20.072 27.2412 20.072H29.2507L27.4981 12.134ZM24.8283 17.2539C25.0076 16.796 25.6908 15.0333 25.6908 15.0333C25.6787 15.0545 25.8689 14.5733 25.9779 14.275L26.1245 14.96C26.1245 14.96 26.5388 16.856 26.6259 17.2539H24.8283Z" fill="#005098"/>
<path d="M10.1138 12.1321L7.99403 17.5488L7.76753 16.4483C7.37384 15.1788 6.14434 13.804 4.76953 13.116L6.70759 20.0628L8.99816 20.0598L12.4068 12.1321H10.1138Z" fill="#005098"/>
<path d="M6.02858 12.1272H2.53639L2.50977 12.2923C5.22552 12.9499 7.02308 14.5389 7.76808 16.4483L7.00977 12.7976C6.87895 12.2946 6.49858 12.1448 6.02858 12.1272Z" fill="#F6A500"/>
</g>
<defs>
<clipPath id="clip0_774_785">
<rect width="32" height="32" fill="white"/>
</clipPath>
</defs>
</svg>
