<svg viewBox="0 0 1920 24.95" xmlns="http://www.w3.org/2000/svg" id="a">
  <defs>
    <style>
      .cls-1 {
        fill: #fff;
      }
    </style>
  </defs>
  <path d="M1507.76,14.58c.25.18.43.29.67.45h.11l-.78-.45ZM1522.77,10.66c1.35.31,2.56.59,3.81.86-.72-.64-1.78-1.07-3.81-.86ZM1169.21,7.73l.62,1.02c.07-.33-.02-.68-.62-1.02ZM1720.1,9.46c-1.08-.25-2.19-.53-2.83-1.25.36,1.16,1.46,1.33,2.83,1.25ZM1702.01,9.82c.52-.17,1.13-.27,1.58-.49-1.63-.46-1.74-.07-1.58.49ZM1568.9,8.25l1.94.85c-.18-.4-.66-.71-1.94-.85ZM1142.31,5.74c.21.24.44.45.67.63-.11-.21-.31-.42-.67-.63ZM483.12,6.74l1.94.85c-.18-.4-.66-.71-1.94-.85ZM842.3,3.06l2.25.1c-.57-.26-1.24-.1-2.25-.1ZM0,5.99v18.96h1920V5.84c-2.04.18-4.65.04-8.72-1.05l1.59.91c-10.76-.79-23.83-2.03-32.21-1.45l.12,1.86-12.58-4.49,1.77,2.78-7.66.08c1.52,0,1.59.91.85,1.41-9.62-6.42-18,4.89-30.37,3.19l1.62.92c-2.08,3.27-8.32,1.48-12.77,3.42-.18-2.78-3.51-6.49-8.16-7.37l3.33,3.7-5.4-.4.82.45c.25,3.72-4.62.08-6.73,2.41-7.73-.82,3.59-3.29-2.54-3.22,1.08,4.17-12.41-2.64-15.07,2.99l-17.08-3.51.95,2.31c-3.21-1.83-6.46-4.56-10.18-3.14-1.52.04,3.87.44,4.71,1.81-7.41,2.9-17.19-5.38-19.85.25-4.59.07-4.8-2.72-4.12-4.14-1.26,3.75-11.43.61-16.75,1.14l2.54,3.26c-2.09-1.78-5.51-.67-8-.5,1.72.39,3.42.7,3.56,2.41-6.91-.38-15.22,1.12-21.47-.67.35-.21-.05-.88-.19-1.38-6.71,1.94-20.56-.39-29.93-2.42,2.39,1.38,9.31,1.75,4.12,4.15-10.02-1.27-4.91-4.61-13.5-6.83-1.39,1.88,5.53,2.26,1.14,5.11l-7.98-4.54.27,3.72c-19.45-4.89-40.6,9.85-56.6-.21l1.2-4.68c-6.52,5.21-13.05-.3-17.89,6.74l-1.67-1.82-2.78,3.78-3.47-5.56.26,3.72-4.36-1.88c.36.8-.72,1.92-.14,2.86-9.55-5.48-7.39,3.82-16.89-.71.82.45,2.41,1.36,1.69,1.85-9.02-3.58-11.54.7-19.39.6-2.89-.69-5.98-1.38-9.51-2.18.91.8,1.27,1.94,2.28,2.7-6.49-3.29-8.29-.33-10.59,1.74l-2.47-1.42.16,1.86c-4.48-1.18-6.31-1.38-7.52-1.35h-.01c-12.71-2.57-26.18-2.14-38.41-.82-.53-.57-1.85-.68-4.77-.9l3.09,1.08c-5.8.67-11.29,1.52-16.26,2.32-.32,0-.64-.02-.95-.04l3.49-2.27-10.98.13s-.09-.03-.14-.04l10.51-2.95-14.42,1.58,1.58.92c-14.49.66-30.03-2.87-42.39-4.59-27.9,5.51-61.21-.14-86.71,6.73l-2.81-6.97c-1.38,1.88-.4,5.14-4.84,7.06-4.66-.86-5.7-5.06-5.85-6.92l-5.83,3.8c-1.28-6.97-16.57,3.94-20.22-4.4-1.31,2.83-11.15,4.35-14.39,1.59-2.28.51,1.92,5.57-5.07,4.27,1.12-5.61-2.51-3.25-7.31-5.99-5.39-.39-8.04,5.25-13.49,3.92l2.38,1.37c-2.17,1.43-10.68.12-14.67-2.16-1.65-1.84,4.37-2.84,1.2-4.67-2.11,2.37-6.57,4.29-1.81,7.03-3.7,1.42-10.75-.8-10.22-4.07l3.71-1.46-23.64.78c4.65.88-1.41,1.88-2.06,3.3-2.58-4.19-11.11-5.48-12.69-6.39l-3.53,4.25-1.11-1.76c-.1.53-.77,1.02-1.2,1.34l-6.4-3.66c-2.13,2.35-8.06,5.23-12.08,2.03l3.66-2.38c-2.89.03-7.53,2.95-10.85.3.38.74-.33,1.55.34,2.64-14.42,1.57-28.31-.11-41.45-2.28l.78.47c-7.6,1.02-14.75-3.08-19.47-4.9-14.55-.26-38.19.51-56.47,1.67l-3.32-3.68-.54,3.28c-16.92-1.68-34.74,6.04-50.11,5.28l.56-3.26c-6.66,3.35-7.11-3.17-8.99,2.91-10.83-1.73-19.32-3.02-30.22-5.67.26,3.74-6.71,2.43-10.43,3.86-6.72-8.28-9.1,1.06-17.8-3.03l1.58.92c-5.38-.39-7.76-1.77-11.62-2.19l.13,1.87c-8.3,1.5-9.31-1.74-15.42-1.67-5.26,1.47,1.06,4.19-7.37,3.82-.91-2.3-6.44-4.57-9.65-6.4.02-.02.03-.03.05-.05h-.73c-2.66,1.42-8.53,4.29-12.21,1.61l1.67,1.84-7.73-.24c.31.11.6.31.89.81-8.56-2.23-8.25,2.43-19.94-.69l1.59.91c-10.76-.79-23.83-2.03-32.21-1.45l.12,1.86-12.58-4.49,1.77,2.78-7.66.08c1.52,0,1.59.91.85,1.41-9.62-6.42-18,4.89-30.37,3.19l1.62.92c-2.08,3.27-8.32,1.48-12.77,3.42-.18-2.78-3.51-6.49-8.16-7.37l3.33,3.7-5.4-.4.82.45c.25,3.72-4.62.08-6.73,2.41-7.73-.82,3.59-3.29-2.54-3.22,1.08,4.17-12.41-2.64-15.07,2.99l-17.08-3.51.95,2.31c-3.21-1.83-6.46-4.56-10.18-3.14-1.52.04,3.87.44,4.71,1.81-7.42,2.9-17.19-5.38-19.85.25-4.59.07-4.8-2.72-4.12-4.14-1.26,3.75-11.43.61-16.75,1.14l2.54,3.26c-2.09-1.78-5.51-.67-8-.5,1.72.39,3.42.7,3.56,2.41-6.46-.35-14.13.93-20.2-.36-.37-.23-.75-.45-1.13-.67-.03-.29-.23-.69-.32-1.02-.32.09-.68.17-1.03.24-4.88-2.7-10.35-4.64-18.83-2.63-.3,1.25.63,1.67,1.36,2.08-2-.3-3.99-.64-5.91-1-.78-.76-1.84-1.36-3.88-1.31l-5.93-.02c-.89-.87-2.23-1.73-5.07-2.46-.78,1.06,1.06,1.64,2.04,2.45l-5.61-.02-3.27-1.86.13,1.85-9.88-.04c.81.33,1.47.62,2.02.9-13.87-.27-28.12,6.14-40.39,3.93-.38-.27-.74-.56-1.1-.87-.69.03-1.4.04-2.1.07-1.72-.56-3.39-1.31-5.01-2.33l1.2-4.68c-6.52,5.21-13.05-.3-17.88,6.74h0l-1.67-1.82-1.24,1.68c-.99-.06-1.98-.12-2.97-.18l-2.04-3.27.22,3.16c-.5-.03-1-.06-1.5-.1l-2.82-1.21c.13.3.07.64-.04,1.01-18.12-1.33-36.78-3.45-52.68-4.37-10.07-1.1-9.34,7.28-16.65,2.36.79.46.15,1.86.22,2.79-9.13.28-20.66.15-28.14,2.23-3.21-1.76,2.02-3.31,1.93-4.24-2.97,1.01-4.97,4.35-10.46,3.09,3.55-3.39-8.03-4.42-12.61-4.28,3.2,1.77,10.03,1.1,8.85,4.87-6.67,2.53-8.43-.22-12.48-2.43l2.58,3.19c-6.98-1.88-9.6.03-12.87,1.27l-2.25.03c.02.22.06.42.11.61-2.22.46-5.01.38-9.44-1.18-.96-2.32,5.33-.64,4.35-2.95-13.35-3.79-24.92,4.02-39.81.26.81.42,2.41,1.32,1.71,1.81l-7.32-.53c2.48.59-1.45,2.92-.02,4.47h0c-1.25-1.54-2.62-1.9-6.92-2.22-.38.1-.73.2-1.08.3.48-3.04,6.69-5.14-1.98-7.09,3.64,6.39-11.33,1.72-9.47,5.4-18.25,1.47-30.25-4.25-47.93-5.11-.49,3.26-4.18,4.78-4.65,8.07l-4.05-2.23.11.93c-5.96,2.06-10.15-2.03-5.73-4.02,3.06-.09,4.1,3.14,6.83-.67-4.33,2.95-12.53-3.36-16.72,1.42.81.45.08.94.16,1.86l-5.37-.3.39-4.22c-20.58,1.09-43.66-.11-59.82-1.02-8.3,1.65-21.32,1.55-23.31,4.89-10.62,1.26-23.89-1.62-30.89-2.82-4.34,2.92-20.2-3.14-19.61,3.37l-6.45-3.55.15,1.86c-5.53-2.15-2.95,1.05-8.36.71l-.32-3.72c-5.23,1.55-16.23-1.85-25.35-.65l.09.93c-3.85-.35-4.84-2.64-8.51-1.15l-.49,3.3C13.83,7.27,6.92,6.24,0,5.99ZM298.13,10.99l1.96.14c-.44-.11-1.03-.16-1.96-.14ZM634.32,7.95c-1.08-.25-2.19-.53-2.83-1.25.36,1.16,1.46,1.33,2.83,1.25ZM616.23,8.32c.52-.17,1.13-.27,1.58-.49-1.63-.46-1.74-.07-1.58.49Z" class="cls-1"></path>
</svg>